<?xml version="1.0" encoding="UTF-8" standalone="no"?>
<!-- Created with Inkscape (http://www.inkscape.org/) -->

<svg
   xmlns:dc="http://purl.org/dc/elements/1.1/"
   xmlns:cc="http://creativecommons.org/ns#"
   xmlns:rdf="http://www.w3.org/1999/02/22-rdf-syntax-ns#"
   xmlns:svg="http://www.w3.org/2000/svg"
   xmlns="http://www.w3.org/2000/svg"
   xmlns:xlink="http://www.w3.org/1999/xlink"
   xmlns:sodipodi="http://sodipodi.sourceforge.net/DTD/sodipodi-0.dtd"
   xmlns:inkscape="http://www.inkscape.org/namespaces/inkscape"
   width="210mm"
   height="297mm"
   viewBox="0 0 744.09448819 1052.3622047"
   id="svg2"
   version="1.1"
   inkscape:version="0.91 r"
   inkscape:export-filename="/home/ekkyvalent/public_html/img/jumbotron.png"
   inkscape:export-xdpi="90"
   inkscape:export-ydpi="90"
   sodipodi:docname="asset.svg">
  <defs
     id="defs4">
    <clipPath
       clipPathUnits="userSpaceOnUse"
       id="clipPath4187">
      <path
         inkscape:connector-curvature="0"
         id="path4189"
         d="M 165.31641,50.070312 C 156.03544,49.948461 144.36328,50.6875 129.28516,52.71875 L 58.572266,80.933594 c 0,0 -8.929409,14.285152 -6.072266,19.285156 0,0 -15.357143,-0.357419 -20,14.64258 -4.642857,15 -11.785156,30.71484 -11.785156,30.71484 L 30,227.71875 l -0.892578,5.53711 -12.5,13.39258 0.535156,13.92773 c 0,0 5.179409,-0.26729 7.322266,5.71485 2.142857,5.98215 6.21875,20.25 6.21875,20.25 0,0 1.641526,63.38579 7.576172,74.75 5.934646,11.36422 7.070312,14.26953 7.070312,14.26953 L 2.0195312,402.83398 c 0,0 -92.9328212,34.59785 -94.9531222,35.35547 -2.020308,0.75761 -15.909799,4.04009 -21.970709,15.4043 -6.06092,11.36422 -69.95312,228.80078 -69.95312,228.80078 l -21.95899,81.66406 720.76758,0 c 0.1185,-5.7672 0.6172,-44.12961 -6.85547,-57.67382 -8.08122,-14.64721 1.01009,-33.33467 -17.67773,-58.33594 -18.68782,-25.00128 -13.88867,-36.8711 -13.88867,-36.8711 0,0 2.52616,-15.15101 0.50586,-25 -2.02031,-9.84898 -5.30337,-52.02404 -17.67774,-59.34765 -12.37437,-7.3236 -110.35937,-59.59961 -110.35937,-59.59961 -8.3977,-5.77342 -23.99905,-20.66464 -39.90235,-29.79883 -15.6465,-8.9867 -41.66797,-25.63281 -41.66797,-25.63281 l -17.80468,-37.75391 9.41211,-41.14648 c 0,0 15.46389,3.51888 24.30273,-16.43164 8.83883,-19.95051 17.67773,-39.14453 17.67773,-39.14453 0,0 8.08161,-27.27386 -3.53515,-33.83985 l -3.91406,-2.14648 14.51953,-62.25 c 0,0 8.33353,-23.73993 -5.8086,-44.95313 0,0 -12.37317,-51.012509 -47.72851,-54.042966 l -4.04102,-0.503906 c 0,0 -6.56668,-11.364857 -30.05273,-14.900391 -18.34848,-2.762135 -20.99236,-14.18005 -54.13867,-14.615235 z"
         style="opacity:1;fill:#333333;fill-opacity:1;stroke:none;stroke-width:1.70000005;stroke-linecap:round;stroke-miterlimit:4;stroke-dasharray:none;stroke-dashoffset:0;stroke-opacity:1" />
    </clipPath>
  </defs>
  <sodipodi:namedview
     id="base"
     pagecolor="#ffffff"
     bordercolor="#666666"
     borderopacity="1.0"
     inkscape:pageopacity="0.0"
     inkscape:pageshadow="2"
     inkscape:zoom="0.1767767"
     inkscape:cx="-922.86643"
     inkscape:cy="410.8275"
     inkscape:document-units="px"
     inkscape:current-layer="layer1"
     showgrid="false"
     inkscape:window-width="1366"
     inkscape:window-height="744"
     inkscape:window-x="0"
     inkscape:window-y="24"
     inkscape:window-maximized="1" />
  <metadata
     id="metadata7">
    <rdf:RDF>
      <cc:Work
         rdf:about="">
        <dc:format>image/svg+xml</dc:format>
        <dc:type
           rdf:resource="http://purl.org/dc/dcmitype/StillImage" />
        <dc:title />
      </cc:Work>
    </rdf:RDF>
  </metadata>
  <g
     inkscape:label="Layer 1"
     inkscape:groupmode="layer"
     id="layer1">
    <g
       id="g4237"
       inkscape:export-filename="/home/ekkyvalent/public_html/ep-personal-page/img/jumbotron-2.png"
       inkscape:export-xdpi="90"
       inkscape:export-ydpi="90">
      <rect
         y="-189.26227"
         x="-1414.2135"
         height="1080"
         width="2412.9543"
         id="rect4156"
         style="opacity:1;fill:#898989;fill-opacity:1;stroke:none;stroke-width:1.70000005;stroke-linecap:round;stroke-miterlimit:4;stroke-dasharray:none;stroke-dashoffset:0;stroke-opacity:1" />
      <g
         transform="translate(-240,0)"
         id="g4223">
        <path
           inkscape:connector-curvature="0"
           style="opacity:1;fill:#e91e63;fill-opacity:0.94117647;stroke:none;stroke-width:1.70000005;stroke-linecap:round;stroke-miterlimit:4;stroke-dasharray:none;stroke-dashoffset:0;stroke-opacity:1"
           d="m 375.23047,-39.433594 c -11.99322,0.120467 -26.22626,1.200633 -43.64258,3.546875 a 9.5814974,9.5814974 0 0 0 -0.006,0 c -1.44123,0.195044 -2.86039,0.567789 -4.21094,1.107422 L 237.01562,1.2734375 c -3.47723,1.3861832 -6.49237,3.9051285 -8.47851,7.078125 -9.3e-4,0.00152 -0.003,0.00239 -0.004,0.00391 -0.02,0.031653 -3.41013,5.3954765 -6.40429,12.0957035 -0.97315,2.177687 -1.91653,4.719517 -2.76758,7.427734 -0.25706,0.09826 -0.4725,0.129359 -0.73242,0.234375 -9.50436,3.840018 -20.63803,12.634307 -25.32032,27.761719 -5.44135,17.579726 -14.25526,37.135639 -14.26367,37.154297 -1.32022,2.906087 -1.83728,6.172065 -1.47851,9.343749 l 11.53711,102.05859 -12.1211,12.98828 c -3.18845,3.41612 -4.94423,8.12934 -4.76562,12.79883 a 9.5814974,9.5814974 0 0 0 0,0.002 l 0.68359,17.79883 a 9.5814974,9.5814974 0 0 0 0,0.002 c 0.26293,6.82835 5.10024,12.97494 11.31836,15.64454 2.16928,6.63208 5.37775,17.39411 6.0625,19.7539 0.0873,3.15228 0.58272,20.11934 1.94922,40.59766 0.75076,11.2509 1.73581,23.00959 3.08203,33.2793 1.30221,9.93396 2.21246,18.60132 6.58008,26.96484 0.94072,1.8014 1.10957,2.20125 1.77734,3.50781 l -40.25781,25.35352 c -3.21512,1.1969 -114.692471,42.69402 -119.181641,44.375 -9.5e-4,2.9e-4 -0.005,0.002 -0.0059,0.002 -0.318685,0.0951 -0.659716,0.20427 -1.105468,0.34766 -0.891506,0.28675 -2.116388,0.69334 -3.419922,1.15234 -2.683285,0.94485 -6.185409,2.31719 -10.025391,4.31836 -7.656148,3.98992 -17.272931,10.75976 -23.4374999,22.31836 -2.7954278,5.24144 -4.2838139,10.52943 -7.2558593,19.51172 -3.0338314,9.16902 -6.876676,21.27809 -11.2656248,35.3789 -8.778153,28.20248 -19.7225,64.3326 -30.421875,100.00391 -21.39875,71.34256 -41.81836,140.83984 -41.81836,140.83984 -0.03515,0.11884 -0.07081,0.23983 -0.103515,0.35938 a 9.5814974,9.5814974 0 0 0 -0.0078,0.0371 L -112.69922,886.125 a 9.5814974,9.5814974 0 0 0 -0.0117,0.043 c -0.39295,1.4888 -0.58896,3.03052 -0.58594,4.57031 l 956.58399,0 c 0.0842,-4.27961 0.26915,-18.40041 -0.7832,-34.29687 -1.0549,-15.93497 -2.24521,-33.58543 -10.18946,-47.98438 -2.05255,-3.72025 -2.60699,-12.22055 -4.10937,-25.69922 -1.54285,-13.84172 -5.7109,-32.04518 -19.80469,-50.90039 -10.69748,-14.3115 -13.74767,-23.61702 -14.5957,-28.16406 -0.42661,-2.28748 -0.32588,-3.35872 -0.30078,-3.59766 0.0131,-0.1244 0.0208,-0.21654 0.0312,-0.32226 0.12682,-0.4911 0.32193,-0.9647 0.40625,-1.46485 0.14341,-0.67235 4.2613,-20.25196 0.52734,-38.45507 -0.57231,-2.79003 -2.7461,-21.76219 -6.33594,-39.1504 -1.79272,-8.68338 -4.03605,-17.56428 -7.35156,-25.75585 -3.19514,-7.89419 -7.72384,-17.01013 -17.25391,-22.65039 -9.56618,-5.66161 -43.78605,-24.0688 -77.08789,-41.95118 -32.67879,-17.54782 -62.28163,-33.34231 -63.4082,-33.94336 -7.5288,-5.32673 -28.94304,-25.38007 -51.72461,-38.46484 -17.1073,-9.82573 -42.51623,-25.97172 -48.23828,-29.61719 l -17.92383,-38.00195 7.78125,-34.02148 c 0.7847,-0.19748 1.51989,-0.3158 2.33984,-0.58204 11.03829,-3.58422 23.08652,-12.98678 30.51758,-29.75976 C 557.0107,300.61296 568.2695,276.168 568.2695,276.168 a 9.5814974,9.5814974 0 0 0 0.004,-0.01 c 0.35177,-0.76598 0.64718,-1.5571 0.88672,-2.36523 0.0147,-0.0483 3.10009,-10.16745 3.99609,-22.21289 0.4435,-5.96218 0.47945,-12.88344 -1.34375,-20.12696 -1.37925,-5.47973 -4.17966,-11.62057 -9.125,-16.55468 l 15.64648,-67.07617 c 1.81849,-5.66987 10.97848,-37.7623 -8.16796,-69.154301 -1.09379,-4.149848 -5.16165,-18.397346 -14.55274,-34.8125 -10.76961,-18.824772 -29.63826,-41.0852285 -59.2168,-44.58593775 -1.76461,-1.75658835 -3.78597,-3.60544915 -6.40039,-5.48046875 -8.18844,-5.8726315 -20.61258,-11.7032545 -38.16601,-14.3457035 -8.31561,-1.251814 -12.36136,-4.276894 -22.74024,-9.035156 -10.61977,-4.868704 -25.57051,-9.532203 -48.85351,-9.837891 -1.6273,-0.02135 -3.2954,-0.02101 -5.00586,-0.0039 z"
           id="path4148" />
        <image
           sodipodi:absref="/home/ekkyvalent/public_html/ep-personal-page/asset/../img/jumbotron.jpg"
           xlink:href="../img/jumbotron.jpg"
           transform="matrix(1.2779,0,0,1.2779,168.74521,-85.652703)"
           clip-path="url(#clipPath4187)"
           width="1152.5"
           height="766.25"
           preserveAspectRatio="none"
           id="image4144"
           x="-596.25"
           y="-2.1913667"
           style="fill:#898989;fill-opacity:1" />
      </g>
    </g>
    <rect
       style="opacity:1;fill:#898989;fill-opacity:1;stroke:none;stroke-width:1.70000005;stroke-linecap:round;stroke-miterlimit:4;stroke-dasharray:none;stroke-dashoffset:0;stroke-opacity:1"
       id="rect4139"
       width="2640"
       height="1674.2858"
       x="-1268.5714"
       y="1397.9336" />
    <rect
       style="opacity:1;fill:#808080;fill-opacity:1;stroke:none;stroke-width:1.70000005;stroke-linecap:round;stroke-miterlimit:4;stroke-dasharray:none;stroke-dashoffset:0;stroke-opacity:1"
       id="rect4158"
       width="80"
       height="80"
       x="332.04724"
       y="2007.5665" />
    <path
       style="opacity:1;fill:#ffffff;fill-opacity:1;stroke:none;stroke-width:1.70000005;stroke-linecap:round;stroke-miterlimit:4;stroke-dasharray:none;stroke-dashoffset:0;stroke-opacity:1"
       d="m 378.51356,2027.5673 c -0.58415,0 -1.11032,0.011 -1.30109,0.024 -2.96426,0.2506 -5.21234,1.4635 -6.62739,3.5757 -0.75099,1.1211 -1.2615,2.5503 -1.45177,4.0649 -0.091,0.7243 -0.0932,0.8087 -0.10392,3.8879 l -0.0101,3.0701 -3.06247,0 -3.06246,0 0,3.5765 0,3.5766 3.06391,0 3.06391,0 0,9.1063 0,9.1064 -11.4439,0 c -0.54071,0 -0.77615,0 -1.26715,0 l 0,0 20.08398,0 0,-9.1066 0,-9.1068 3.05247,0 c 2.4199,0 3.05475,-0.011 3.06338,-0.03 0.012,-0.034 0.91527,-7.0256 0.91527,-7.0852 0,-0.033 -0.37325,-0.037 -3.51555,-0.037 l -3.51557,0 0,-2.4998 c 0,-1.5264 0.0101,-2.5983 0.025,-2.7526 0.16632,-1.6805 0.92004,-2.4516 2.61165,-2.6722 0.25526,-0.033 0.65953,-0.042 2.47188,-0.052 l 2.16671,-0.012 0,-3.1815 0,-3.1816 -0.0915,-0.015 c -0.39543,-0.064 -2.17706,-0.1854 -3.41571,-0.2327 -0.42275,-0.016 -1.06491,-0.024 -1.64906,-0.024 z m -2.11895,39.9891 11.38875,0 0,-0.012 -5.15717,0.011 -6.23158,0.011 z"
       id="rect4154"
       inkscape:connector-curvature="0" />
    <rect
       y="2023.1229"
       x="203.23248"
       height="80"
       width="80"
       id="rect4773"
       style="opacity:1;fill:#808080;fill-opacity:1;stroke:none;stroke-width:1.70000005;stroke-linecap:round;stroke-miterlimit:4;stroke-dasharray:none;stroke-dashoffset:0;stroke-opacity:1" />
    <path
       style="opacity:1;fill:#ffffff;fill-opacity:1;stroke:none;stroke-width:1.70000005;stroke-linecap:round;stroke-miterlimit:4;stroke-dasharray:none;stroke-dashoffset:0;stroke-opacity:1"
       d="m 247.16592,2050.6039 c -0.41976,-0.01 -0.84776,0.032 -1.29216,0.1155 -3.11204,0.5832 -5.41295,3.6579 -5.07798,6.7858 l 0.0909,0.8477 -0.52095,-0.072 c -4.75347,-0.6569 -7.84312,-2.151 -11.17361,-5.4034 l -1.25535,-1.2258 -0.15088,0.3952 c -1.03362,2.709 -0.61221,5.29 1.18938,7.2841 0.29054,0.3216 0.44257,0.5948 0.36985,0.6653 -0.0713,0.069 -0.5509,-0.017 -1.13511,-0.2033 -0.55641,-0.1776 -1.05414,-0.2967 -1.10595,-0.2647 -0.10232,0.063 0.006,0.7319 0.27324,1.6961 0.46399,1.6708 1.6677,3.0884 3.4149,4.0216 l 1.01722,0.5433 -1.15767,0.068 c -1.13797,0.067 -1.15719,0.074 -1.12191,0.4086 0.0593,0.5633 1.00475,1.7981 1.88696,2.4643 0.70206,0.5302 1.3347,0.843 3.22955,1.5973 0.1993,0.079 0.049,0.2136 -0.74909,0.6691 -1.90452,1.0871 -3.71103,1.5799 -6.41228,1.749 -0.76498,0.048 -1.29497,0.137 -1.24981,0.2101 0.0431,0.07 0.5017,0.3399 1.01892,0.6003 2.26236,1.1393 4.41903,1.7771 6.62487,1.9591 0.73443,0.061 1.36601,0.1178 1.40346,0.1271 0.0374,0.01 0.7987,-0.044 1.69182,-0.1175 2.56223,-0.2122 4.61467,-0.7724 6.7666,-1.8468 3.99796,-1.9959 7.59243,-6.4812 8.83232,-11.0212 0.48299,-1.7684 0.82335,-3.6579 0.82335,-4.5716 0,-0.978 0.15442,-1.2465 1.56583,-2.7215 1.54854,-1.6182 1.63463,-1.867 0.51117,-1.4785 -1.03904,0.3591 -1.79285,0.5248 -1.86419,0.4094 -0.0319,-0.052 0.27722,-0.5119 0.68694,-1.0227 0.74708,-0.9317 1.35509,-1.9571 1.233,-2.0792 -0.0358,-0.036 -0.48437,0.1159 -0.99678,0.3373 -0.51243,0.2214 -1.34269,0.5366 -1.84504,0.7006 l -0.91336,0.2979 -0.83442,-0.5665 c -1.32954,-0.9029 -2.51441,-1.3376 -3.7737,-1.3581 z"
       id="path4175"
       inkscape:connector-curvature="0" />
    <rect
       y="1822.181"
       x="204.04724"
       height="80"
       width="80"
       id="rect4773-7"
       style="opacity:1;fill:#808080;fill-opacity:1;stroke:none;stroke-width:1.70000005;stroke-linecap:round;stroke-miterlimit:4;stroke-dasharray:none;stroke-dashoffset:0;stroke-opacity:1" />
    <path
       style="fill:#ffffff"
       d="m 231.10565,1876.7795 c -0.80416,-0.3653 -1.6014,-1.2855 -1.85925,-2.1461 -0.26554,-0.8863 -0.26554,-24.011 0,-24.8973 0.25793,-0.8609 0.99049,-1.7022 1.84035,-2.1136 0.70169,-0.3397 0.87225,-0.3443 12.96049,-0.3443 12.08824,0 12.2588,0 12.9605,0.3443 0.84986,0.4114 1.58241,1.2527 1.84035,2.1136 0.26554,0.8863 0.26554,24.011 0,24.8973 -0.25785,0.8606 -1.0551,1.7808 -1.85925,2.1461 -0.63303,0.2875 -1.35639,0.3045 -12.9416,0.3045 -11.58521,0 -12.30857,-0.017 -12.94159,-0.3045 z m 24.14205,-3.4767 c 0.31831,-0.3183 0.32943,-0.549 0.32943,-6.8355 l 0,-6.5062 -1.32084,0 -1.32084,0 0.12205,0.453 c 0.0671,0.2491 0.11971,1.083 0.11686,1.853 -0.0184,4.9748 -4.13076,9.0543 -9.12712,9.0543 -4.99636,0 -9.10873,-4.0795 -9.12712,-9.0543 -0.003,-0.77 0.0497,-1.6039 0.11687,-1.853 l 0.12204,-0.453 -1.32084,0 -1.32083,0 0,6.5062 c 0,6.2865 0.0111,6.5172 0.32942,6.8355 0.32277,0.3228 0.54904,0.3295 11.20046,0.3295 10.65142,0 10.87769,-0.01 11.20046,-0.3295 z m -8.85589,-6.052 c 1.10703,-0.4857 2.28573,-1.6616 2.81352,-2.8067 0.51015,-1.1068 0.51015,-3.4119 0,-4.5188 -1.29319,-2.8057 -4.65598,-4.0936 -7.43377,-2.847 -1.17856,0.5289 -2.34497,1.681 -2.8824,2.847 -0.50856,1.1034 -0.5101,3.4122 -0.003,4.512 1.32001,2.8629 4.59515,4.0906 7.50568,2.8135 z m 8.78102,-11.1529 c 0.38644,-0.3865 0.4043,-0.4959 0.4043,-2.4782 0,-1.9823 -0.0179,-2.0917 -0.4043,-2.4782 -0.38643,-0.3864 -0.49589,-0.4043 -2.47817,-0.4043 -1.98229,0 -2.09174,0.018 -2.47818,0.4043 -0.3823,0.3823 -0.40429,0.5072 -0.40429,2.2953 0,2.0874 0.1406,2.6708 0.69763,2.8946 0.20515,0.082 1.24728,0.1546 2.31586,0.1603 1.84999,0.01 1.96219,-0.01 2.34715,-0.3938 z"
       id="path5406"
       inkscape:connector-curvature="0" />
    <rect
       y="1910.3622"
       x="299.5"
       height="80"
       width="80"
       id="rect4773-7-6"
       style="opacity:1;fill:#808080;fill-opacity:1;stroke:none;stroke-width:1.70000005;stroke-linecap:round;stroke-miterlimit:4;stroke-dasharray:none;stroke-dashoffset:0;stroke-opacity:1" />
    <path
       style="fill:#ffffff"
       d="m 329.36145,1960.7459 c -1.29572,-0.093 -1.93555,-0.2101 -2.37624,-0.4349 -1.16116,-0.5924 -1.86492,-2.0372 -2.28366,-4.6882 -0.27421,-1.736 -0.26681,-8.6427 0.0112,-10.4588 0.35862,-2.3426 1.0942,-4.0076 2.02441,-4.5825 0.85338,-0.5275 2.32028,-0.6324 10.05036,-0.7192 8.94777,-0.1005 14.12125,0.082 15.14304,0.5339 0.81718,0.3615 1.46362,1.2154 1.87645,2.4786 0.60028,1.8368 0.69298,2.8588 0.69298,7.6398 0,3.8675 -0.0434,4.8012 -0.27324,5.879 -0.47724,2.238 -1.35896,3.7138 -2.42929,4.0662 -0.25471,0.084 -1.27712,0.2197 -2.27204,0.3019 -2.15452,0.1781 -17.63103,0.1659 -20.16398,-0.016 z m 12.07314,-7.9697 c 2.78189,-1.7884 3.59092,-2.3766 3.45048,-2.5084 -0.15723,-0.1477 -4.82656,-3.201 -7.53224,-4.9253 l -0.86678,-0.5524 0,5.5759 0,5.576 0.6573,-0.4149 c 0.36151,-0.2281 2.29257,-1.466 4.29124,-2.7509 z"
       id="path6069"
       inkscape:connector-curvature="0" />
    <rect
       y="1816.3427"
       x="385.67828"
       height="80"
       width="80"
       id="rect4773-7-9"
       style="opacity:1;fill:#808080;fill-opacity:1;stroke:none;stroke-width:1.70000005;stroke-linecap:round;stroke-miterlimit:4;stroke-dasharray:none;stroke-dashoffset:0;stroke-opacity:1" />
    <path
       style="fill:#ffffff"
       d="m 416.27085,1865.5917 c -0.0635,-0.039 -0.11696,-0.4688 -0.21462,-1.7254 l -0.13003,-1.6732 0.13457,-1.5343 c 0.074,-0.8439 0.1542,-1.5661 0.1782,-1.605 0.0712,-0.1151 0.21684,-0.081 0.27823,0.066 0.0315,0.075 0.11356,0.8273 0.18246,1.6717 l 0.12527,1.5353 -0.1254,1.4975 c -0.069,0.8235 -0.13778,1.5558 -0.1529,1.6272 -0.0322,0.1517 -0.15566,0.2145 -0.27578,0.1403 z m 1.17485,0.015 c -0.0491,-0.031 -0.11389,-0.6051 -0.19684,-1.7429 -0.10498,-1.4398 -0.11502,-1.8843 -0.0664,-2.9397 0.0315,-0.6839 0.0749,-1.7348 0.0966,-2.3352 0.0445,-1.2364 0.0977,-1.5467 0.26513,-1.5467 0.0614,0 0.13871,0.034 0.17192,0.076 0.06,0.075 0.13078,1.0611 0.26524,3.692 0.0707,1.3827 0.0643,1.5732 -0.13179,3.9321 -0.0715,0.8603 -0.14911,1.0265 -0.40378,0.8646 z m 1.15522,-0.027 c -0.026,-0.042 -0.0933,-0.7719 -0.14963,-1.6225 -0.0946,-1.4292 -0.0954,-1.7842 -0.0103,-4.6704 0.0953,-3.2305 0.11246,-3.3967 0.35162,-3.3967 0.23321,0 0.25662,0.1934 0.36726,3.0328 0.12835,3.2938 0.12754,3.4621 -0.0252,5.2398 -0.0847,0.9853 -0.14284,1.4031 -0.20034,1.4396 -0.11864,0.075 -0.27924,0.064 -0.33336,-0.023 z m 1.22714,-0.019 c -0.0524,-0.053 -0.0953,-0.1562 -0.0953,-0.2306 0,-0.074 -0.0438,-0.7616 -0.0973,-1.5272 -0.10091,-1.4429 -0.0994,-1.6666 0.0413,-6.1533 0.059,-1.8811 0.0767,-2.1039 0.17503,-2.205 0.12599,-0.1296 0.33227,-0.093 0.39532,0.069 0.0457,0.1179 0.07,0.5702 0.12125,2.257 0.0198,0.6505 0.0647,1.9143 0.0999,2.8083 0.064,1.6255 0.0553,1.8892 -0.13691,4.1366 -0.0371,0.4337 -0.0947,0.8227 -0.12812,0.8644 -0.0835,0.1042 -0.26056,0.095 -0.37511,-0.019 z m 1.22055,0.01 c -0.0599,-0.06 -0.10051,-0.2961 -0.12765,-0.743 -0.0219,-0.3603 -0.0684,-1.0773 -0.10337,-1.5933 -0.0933,-1.3775 0.0963,-7.8686 0.23438,-8.0235 0.12097,-0.1357 0.2733,-0.1353 0.39674,0 0.0839,0.093 0.11108,0.5723 0.19978,3.5236 0.0958,3.1885 0.096,3.5202 0.002,4.9725 -0.0552,0.8559 -0.1,1.602 -0.0994,1.658 0.002,0.2426 -0.32957,0.3777 -0.50276,0.2045 z m 1.23497,9e-4 c -0.0901,-0.1085 -0.0974,-0.1808 -0.18985,-1.873 -0.0604,-1.105 -0.0603,-2.0277 5e-5,-4.5794 0.0416,-1.7576 0.0834,-3.3005 0.0929,-3.4287 0.0309,-0.4194 0.40515,-0.5922 0.56787,-0.2622 0.0395,0.08 0.10353,1.4376 0.16429,3.4857 0.0934,3.1484 0.0931,3.4518 -0.004,4.9433 -0.11031,1.6861 -0.13741,1.8013 -0.4238,1.8013 -0.0741,0 -0.16727,-0.039 -0.20696,-0.087 z m 1.24439,-0.01 c -0.0584,-0.058 -0.0965,-0.2054 -0.0982,-0.3791 -0.002,-0.1561 -0.0379,-0.9281 -0.0807,-1.7156 -0.0623,-1.1464 -0.0635,-2.0622 -0.006,-4.5953 0.066,-2.9004 0.0811,-3.1736 0.18112,-3.2841 0.13687,-0.1512 0.29967,-0.1538 0.44653,-0.01 0.10062,0.1006 0.1183,0.2551 0.15442,1.3496 0.13929,4.2205 0.14957,5.3107 0.0637,6.7554 -0.0476,0.8007 -0.0871,1.5288 -0.0878,1.6182 -0.002,0.2011 -0.14586,0.3531 -0.33494,0.3531 -0.0786,0 -0.18587,-0.043 -0.23829,-0.095 z m 1.26637,0.01 c -0.10362,-0.073 -0.12367,-0.1663 -0.13949,-0.652 -0.0102,-0.312 -0.0388,-0.9358 -0.0635,-1.3861 -0.0248,-0.4504 -0.0196,-2.6749 0.0116,-4.9433 0.0618,-4.5018 0.0463,-4.3368 0.4068,-4.3368 0.3624,0 0.36237,0 0.42408,2.615 0.031,1.3139 0.0737,3.085 0.0948,3.9356 0.0281,1.1291 0.0124,1.9398 -0.058,3.0024 -0.053,0.8007 -0.0966,1.5015 -0.0967,1.5575 -6.8e-4,0.2525 -0.34132,0.3746 -0.57953,0.2077 z m 1.21036,-0.043 c -0.1818,-0.2006 -0.26569,-2.8687 -0.20101,-6.3928 0.0282,-1.5346 0.0541,-3.3554 0.0576,-4.0462 0.006,-1.1586 0.0158,-1.268 0.12767,-1.4102 0.15866,-0.2017 0.42637,-0.2066 0.58054,-0.011 0.0969,0.1232 0.11553,0.276 0.13115,1.0766 0.01,0.5132 0.0502,2.4206 0.0893,4.2387 0.0609,2.8336 0.0579,3.5278 -0.0209,4.8615 -0.0807,1.3647 -0.10614,1.5715 -0.20721,1.6832 -0.14769,0.1632 -0.40912,0.1631 -0.5571,0 z m 1.20202,0.033 -0.13481,-0.095 0,-6.0881 0,-6.0882 0.1668,-0.1155 c 0.16856,-0.1168 0.65255,-0.2691 1.31923,-0.4153 0.48885,-0.1071 1.82961,-0.1053 2.39728,0 0.84193,0.1611 2.01631,0.6641 2.62822,1.1258 0.2997,0.226 1.10841,1.0319 1.33907,1.3344 0.26711,0.3502 0.76231,1.1826 0.76231,1.2814 0,0.032 0.0513,0.1591 0.11391,0.2828 0.14117,0.2789 0.37132,1.1786 0.37132,1.4516 0,0.266 0.0862,0.291 0.60069,0.174 0.53006,-0.1206 1.25334,-0.1223 1.75424,0 1.19962,0.2828 2.24704,1.2572 2.63499,2.4513 0.0711,0.219 0.15119,0.4072 0.17786,0.4184 0.0633,0.026 0.0634,1.4494 1.4e-4,1.4759 -0.0266,0.011 -0.11096,0.1935 -0.18745,0.4054 -0.42599,1.18 -1.28292,2.0066 -2.4545,2.3677 -0.41016,0.1264 -0.49005,0.1282 -5.88513,0.1282 -4.852,0 -5.48454,-0.011 -5.60413,-0.094 z m -12.17243,-0.069 c -0.0238,-0.06 -0.10099,-0.8075 -0.17143,-1.661 l -0.12808,-1.5519 0.13827,-1.6915 c 0.0761,-0.9304 0.15137,-1.7128 0.16738,-1.7387 0.0373,-0.06 0.26437,-0.062 0.26514,0 3.4e-4,0.025 0.0394,0.4004 0.0868,0.834 0.11217,1.0263 0.2317,2.3835 0.22766,2.5851 -0.007,0.3289 -0.26485,2.9421 -0.30798,3.1164 -0.0514,0.2077 -0.2133,0.2714 -0.27773,0.1092 z m -1.15621,-0.094 c -0.0154,-0.042 -0.0938,-0.7657 -0.17411,-1.6089 l -0.14606,-1.5332 0.14289,-1.6454 c 0.0812,-0.9353 0.17203,-1.674 0.21042,-1.7118 0.14575,-0.1435 0.22245,0.1572 0.32664,1.2807 0.0581,0.6268 0.12978,1.3479 0.15922,1.6024 0.0402,0.3479 0.0252,0.7168 -0.0605,1.486 -0.0627,0.5628 -0.13313,1.228 -0.15651,1.4782 -0.0234,0.2502 -0.0658,0.5163 -0.0942,0.5914 -0.0565,0.1492 -0.16352,0.1804 -0.20784,0.061 z m -1.20795,-0.6065 c -0.0177,-0.1085 -0.087,-0.7431 -0.15403,-1.4102 l -0.1218,-1.2131 0.14896,-1.3213 c 0.14777,-1.3106 0.17216,-1.4385 0.2744,-1.4385 0.0844,0 0.10907,0.1367 0.27617,1.5319 0.13527,1.1296 0.14896,1.3917 0.095,1.8196 -0.16613,1.3181 -0.25353,1.9675 -0.28161,2.0922 -0.0464,0.2063 -0.19988,0.1671 -0.2371,-0.061 z m -1.0921,-0.9099 c -0.0128,-0.042 -0.0682,-0.4442 -0.12323,-0.8946 -0.0915,-0.7493 -0.0919,-0.8716 -0.005,-1.4401 0.0521,-0.3418 0.0952,-0.6966 0.0957,-0.7885 10e-4,-0.2258 0.094,-0.3695 0.18176,-0.2818 0.0762,0.076 0.29979,1.3839 0.30145,1.7634 6e-4,0.1395 -0.0533,0.5762 -0.11989,0.9704 -0.0665,0.3942 -0.12113,0.7236 -0.12131,0.7319 -10e-4,0.055 -0.19062,5e-4 -0.20933,-0.061 z"
       id="path6716"
       inkscape:connector-curvature="0" />
    <rect
       y="1671.3857"
       x="366.5864"
       height="80"
       width="80"
       id="rect4773-7-9-2"
       style="opacity:1;fill:#808080;fill-opacity:1;stroke:none;stroke-width:1.70000005;stroke-linecap:round;stroke-miterlimit:4;stroke-dasharray:none;stroke-dashoffset:0;stroke-opacity:1" />
    <path
       style="opacity:1;fill:#ffffff;fill-opacity:1;stroke:none;stroke-width:1.70000005;stroke-linecap:round;stroke-miterlimit:4;stroke-dasharray:none;stroke-dashoffset:0;stroke-opacity:1"
       d="m 401.09019,1701.8432 c -1.50683,0 -1.91734,0.055 -2.94883,0.3928 -2.90887,0.9536 -5.2196,3.3031 -6.2594,6.3644 -0.41475,1.2211 -0.38826,4.2349 0.0495,5.6164 1.10331,3.4822 4.13143,6.047 7.84585,6.6453 0.94215,0.1518 2.82531,0.034 3.93877,-0.2473 1.55205,-0.3913 2.67933,-1.0419 3.87084,-2.2345 1.26091,-1.2619 1.90495,-2.3737 2.34366,-4.0447 0.32854,-1.2514 0.45053,-4.0155 0.18873,-4.2773 -0.097,-0.097 -1.70387,-0.1356 -4.5893,-0.1105 l -4.43978,0.038 -0.0412,1.6382 -0.0413,1.638 2.76033,0.04 2.76033,0.039 -0.29906,0.8024 c -0.2123,0.5695 -0.5602,1.0636 -1.19849,1.7022 -0.7798,0.7803 -1.03984,0.9427 -1.95731,1.2213 -3.39941,1.0326 -6.76503,-0.7904 -7.67649,-4.1576 -0.74742,-2.7612 0.63323,-5.772 3.21324,-7.0075 1.73213,-0.8294 4.30291,-0.6302 5.70893,0.4422 0.27481,0.2096 0.559,0.3597 0.63162,0.3337 0.16783,-0.06 2.48521,-2.3146 2.48521,-2.4179 0,-0.3207 -2.21261,-1.6355 -3.41679,-2.0305 -1.0098,-0.3313 -1.42902,-0.3866 -2.92901,-0.3866 z m 14.95274,5.4439 0,1.3129 0,1.3129 -1.31293,0 -1.31292,0 -2.3e-4,1.4223 0,1.4224 1.34962,0 1.34962,0 -0.0526,1.3494 -0.0529,1.3494 1.43874,0 1.43852,0 0,-1.3497 -2.3e-4,0 0,-1.3497 1.34939,-0.042 1.3494,-0.042 0,-1.3804 0,-1.3804 -1.3494,0 -1.34939,0 0.0467,-1.3132 0.047,-1.3131 -1.46928,0 -1.46906,0 z"
       id="path7365"
       inkscape:connector-curvature="0" />
    <rect
       y="1694.0132"
       x="567.40472"
       height="80"
       width="80"
       id="rect4773-7-9-2-4"
       style="opacity:1;fill:#808080;fill-opacity:1;stroke:none;stroke-width:1.70000005;stroke-linecap:round;stroke-miterlimit:4;stroke-dasharray:none;stroke-dashoffset:0;stroke-opacity:1" />
    <path
       style="opacity:1;fill:#ffffff;fill-opacity:1;stroke:none;stroke-width:1.70000005;stroke-linecap:round;stroke-miterlimit:4;stroke-dasharray:none;stroke-dashoffset:0;stroke-opacity:1"
       d="m 592.40476,1722.1204 0,1.7929 0,1.7928 0.72255,0 c 0.6078,0 0.76916,0.047 1.01593,0.2934 l 0.29339,0.2932 0,7.7226 c 0,5.068 -0.0423,7.8014 -0.12307,7.9523 -0.18426,0.3443 -0.75399,0.5911 -1.36498,0.5911 l -0.54382,0 0,1.6733 0,1.6733 4.48207,0 4.48207,0 0,-1.6733 0,-1.6733 -1.13545,0 -1.13546,0 0,-7.8487 c 0,-4.3167 0.0403,-7.8091 0.0896,-7.7609 0.0493,0.048 1.24787,4.3195 2.66347,9.4919 l 2.57383,9.4045 2.05764,0.033 c 1.13172,0.018 2.05765,0 2.05765,-0.04 0,-0.2223 5.18368,-18.7762 5.27222,-18.8708 0.062,-0.066 0.10626,3.1537 0.10626,7.739 l 0,7.8526 -1.07569,0 -1.0757,0 0,1.6733 0,1.6733 5.31872,0 5.31873,0 0,-1.6589 0,-1.6591 -0.73487,-0.053 c -0.64256,-0.046 -0.77772,-0.101 -1.0757,-0.4345 l -0.34082,-0.3816 0,-7.6382 0,-7.6384 0.30945,-0.3677 c 0.28627,-0.3402 0.36677,-0.3677 1.07569,-0.3677 l 0.76625,0 0,-1.7928 0,-1.7929 -5.60913,0 -5.60893,0 -0.18041,0.6275 c -0.0992,0.3452 -0.94169,3.4512 -1.8722,6.9024 -0.93051,3.4512 -1.71253,6.296 -1.73773,6.3218 -0.0252,0.026 -0.072,-0.028 -0.10403,-0.1195 -0.0861,-0.246 -3.65251,-13.5906 -3.65251,-13.667 0,-0.036 -2.52789,-0.065 -5.61753,-0.065 l -5.61753,0 z"
       id="rect8012"
       inkscape:connector-curvature="0" />
    <rect
       y="1811.3622"
       x="589"
       height="80"
       width="80"
       id="rect4773-7-9-2-4-6"
       style="opacity:1;fill:#808080;fill-opacity:1;stroke:none;stroke-width:1.70000005;stroke-linecap:round;stroke-miterlimit:4;stroke-dasharray:none;stroke-dashoffset:0;stroke-opacity:1" />
    <path
       style="opacity:1;fill:#ffffff;fill-opacity:1;stroke:none;stroke-width:1.70000005;stroke-linecap:round;stroke-miterlimit:4;stroke-dasharray:none;stroke-dashoffset:0;stroke-opacity:1"
       d="m 639.03334,1842.6026 c -1.31523,0 -1.59019,0.05 -2.2912,0.4196 -1.48989,0.7849 -2.46612,2.2137 -2.66827,3.905 -0.0569,0.4759 -0.35849,1.6564 -0.67008,2.6233 -0.56391,1.7498 -0.56904,1.7585 -1.12606,1.8593 -0.55583,0.1006 -1.90522,0.6906 -2.38191,1.0415 -0.19908,0.1465 -0.89199,-0.03 -3.46101,-0.8827 -4.88705,-1.622 -4.82657,-1.5963 -4.94006,-2.113 -0.0539,-0.2455 -0.3558,-0.7475 -0.67081,-1.1155 -2.36148,-2.7588 -6.82395,-1.1744 -6.82395,2.423 0,2.3251 1.53483,3.8727 3.84079,3.8727 0.74798,0 1.24448,-0.096 1.73714,-0.335 l 0.68999,-0.3353 4.09447,1.365 4.09447,1.3647 0.5076,1.0312 c 0.52595,1.0684 1.3376,1.8118 2.40992,2.2071 0.73835,0.2722 2.30204,0.2457 3.18104,-0.054 1.58647,-0.5406 2.73427,-2.2272 2.75775,-4.0527 l 0.0101,-0.7979 1.60244,-1.3542 c 0.88124,-0.7448 1.90629,-1.5087 2.27792,-1.6978 1.02661,-0.5223 1.86387,-1.363 2.34061,-2.3499 0.5656,-1.1709 0.61087,-3.0118 0.10177,-4.135 -0.44961,-0.992 -1.36524,-1.9662 -2.32144,-2.47 -0.70101,-0.3693 -0.97597,-0.4196 -2.2912,-0.4196 z m -0.11455,1.0079 c 0.60646,-0.012 1.23996,0.1268 1.86349,0.4525 2.83282,1.4799 2.83282,5.35 0,6.8299 -0.93282,0.4873 -2.17154,0.5755 -3.14318,0.2239 -0.75884,-0.2746 -1.70432,-1.1192 -2.0825,-1.8606 -1.38686,-2.7184 0.73423,-5.5946 3.36219,-5.6457 z m 0.0135,1.1538 c -1.63847,0.061 -3.06542,1.594 -2.57585,3.4121 0.20456,0.7596 0.84225,1.5484 1.48912,1.8419 0.77766,0.3527 2.14895,0.1995 2.82437,-0.3157 0.74915,-0.5714 1.03781,-1.1704 1.03781,-2.1538 0,-1.0493 -0.37146,-1.809 -1.12975,-2.3108 -0.52999,-0.3508 -1.09954,-0.494 -1.6457,-0.4737 z m -20.99566,3.3192 c 0.60433,0.014 1.21989,0.234 1.75041,0.6804 0.66516,0.5597 0.58023,0.6996 -0.25244,0.4159 -1.38791,-0.4729 -2.65189,0.065 -3.06035,1.3028 -0.35799,1.0847 0.42331,2.405 1.5727,2.6575 0.26066,0.057 0.51428,0.1696 0.56364,0.2495 0.14972,0.2422 -1.23281,0.1604 -1.73763,-0.1028 -0.70934,-0.3699 -1.03718,-0.7095 -1.35614,-1.4041 -0.37896,-0.8252 -0.36921,-1.4009 0.0379,-2.2418 0.49891,-1.0306 1.47473,-1.5805 2.48195,-1.5574 z m 14.40769,5.1364 c 1.18041,0 2.43481,1.0099 2.76144,2.2229 0.58246,2.1631 -1.74321,4.3034 -3.83809,3.5321 -0.84088,-0.3096 -2.04345,-1.5044 -1.77967,-1.7682 0.0422,-0.042 0.65633,0.1064 1.36474,0.3302 1.51781,0.4794 2.16658,0.3925 2.91778,-0.3916 0.40657,-0.4244 0.46458,-0.6001 0.46458,-1.4083 0,-0.7995 -0.0598,-0.9855 -0.44615,-1.3888 -0.24534,-0.2561 -0.7603,-0.5534 -1.14449,-0.661 -0.88962,-0.2491 -1.02969,-0.4673 -0.30014,-0.4673 z"
       id="path8043"
       inkscape:connector-curvature="0" />
    <rect
       y="1950.6929"
       x="575.89001"
       height="80"
       width="80"
       id="rect4773-7-9-2-4-6-2"
       style="opacity:1;fill:#808080;fill-opacity:1;stroke:none;stroke-width:1.70000005;stroke-linecap:round;stroke-miterlimit:4;stroke-dasharray:none;stroke-dashoffset:0;stroke-opacity:1" />
    <path
       style="opacity:1;fill:#ffffff;fill-opacity:1;stroke:none;stroke-width:1.70000005;stroke-linecap:round;stroke-miterlimit:4;stroke-dasharray:none;stroke-dashoffset:0;stroke-opacity:1"
       d="m 607.44122,1977.5189 c -0.1583,-0.01 -0.26791,0.01 -0.30957,0.049 -0.0554,0.053 -0.12029,1.078 -0.14408,2.277 -0.0404,2.0384 -0.0823,2.2421 -0.64556,3.1303 -0.33133,0.5224 -0.70922,1.4268 -0.83966,2.0096 -0.24186,1.0807 -0.16415,3.9069 0.12647,4.6051 0.14464,0.3475 0.0909,0.3681 -0.61189,0.2363 -0.93799,-0.176 -4.12689,0.066 -4.12689,0.3127 0,0.098 1.1552,0.1892 2.56711,0.2032 2.73618,0.027 2.76264,0.016 -1.10738,0.4804 -0.76095,0.091 -1.05705,0.2135 -1.05705,0.436 0,0.2059 0.11202,0.2661 0.33568,0.1803 0.18471,-0.071 1.29049,-0.2296 2.457,-0.3527 1.70471,-0.1798 2.13786,-0.1728 2.20722,0.035 0.38362,1.1508 3.34629,3.06 5.17387,3.3341 1.11645,0.1674 1.24293,0.3493 0.71193,1.0243 -0.22867,0.2907 -0.4159,0.6976 -0.4159,0.9041 0,0.3234 -0.16249,0.3754 -1.16873,0.3754 -0.94097,0 -1.34301,-0.1117 -2.06375,-0.5735 -0.49232,-0.3155 -1.07587,-0.7776 -1.29709,-1.0272 -0.54531,-0.6152 -1.36811,-1.0168 -2.08389,-1.0168 l -0.59333,0 0.71445,0.755 c 0.39302,0.4153 1.08586,1.3417 1.53964,2.0584 1.01937,1.6102 1.72913,2.0439 3.55967,2.1749 l 1.39303,0.099 0,1.841 c 0,1.3926 -0.0817,1.9576 -0.33567,2.3201 l -0.33568,0.4795 0.75976,-0.1233 c 0.41783,-0.068 0.97658,-0.2655 1.24171,-0.4392 0.46734,-0.3062 0.48196,-0.3954 0.48196,-2.917 0,-1.6053 0.0811,-2.651 0.21204,-2.7319 0.26425,-0.1633 0.17414,5.2554 -0.0969,5.8263 -0.16768,0.3533 -0.11498,0.3743 0.67229,0.2687 1.52669,-0.2048 1.62298,-0.4157 1.668,-3.6531 l 0.0396,-2.838 0.11137,2.8629 c 0.12616,3.2377 0.21404,3.4371 1.59407,3.6222 0.79021,0.106 1.13265,-0.1352 0.63171,-0.4448 -0.12231,-0.076 -0.18439,-1.2458 -0.15824,-2.9814 l 0.0431,-2.8575 0.0566,2.3154 c 0.0312,1.2735 0.10572,2.5255 0.16548,2.782 0.11908,0.511 1.14615,1.0435 2.01217,1.0435 0.49842,0 0.50734,-0.02 0.20763,-0.4474 -0.249,-0.3555 -0.31334,-1.0527 -0.31334,-3.3926 0,-2.9051 -0.17194,-3.9802 -0.74245,-4.6422 -0.25393,-0.2946 -0.19325,-0.3416 0.59585,-0.4599 1.06988,-0.1604 3.0369,-1.0694 3.91076,-1.8071 0.35375,-0.2986 0.8418,-0.8643 1.08473,-1.2574 l 0.44169,-0.7148 1.63339,0.1372 c 0.89828,0.075 1.97284,0.2101 2.38811,0.2992 0.58878,0.1263 0.75504,0.1 0.75504,-0.1189 0,-0.1544 -0.11326,-0.2866 -0.25168,-0.2939 -0.13843,-0.01 -1.20302,-0.133 -2.36577,-0.2793 l -2.1141,-0.2662 2.56712,-0.023 c 1.41191,-0.012 2.56711,-0.1024 2.56711,-0.2001 0,-0.2541 -2.80773,-0.483 -3.90573,-0.3184 l -0.92554,0.1387 0.15069,-0.677 c 0.2603,-1.1709 0.14251,-3.8396 -0.21644,-4.9055 -0.18647,-0.5537 -0.60756,-1.4109 -0.93561,-1.9052 -0.39493,-0.595 -0.55871,-1.0491 -0.4848,-1.3436 0.10494,-0.4182 -0.23446,-3.1835 -0.42942,-3.499 -0.15289,-0.2473 -2.15694,0.2056 -3.32026,0.7503 -1.06281,0.4977 -1.26543,0.5196 -5.03356,0.5465 -3.90712,0.028 -3.93221,0.025 -5.13832,-0.537 -0.92583,-0.4317 -2.52391,-0.8448 -3.20983,-0.8699 z"
       id="path8078"
       inkscape:connector-curvature="0" />
    <rect
       y="1861.5974"
       x="677.00629"
       height="80"
       width="80"
       id="rect4773-7-9-2-4-6-2-9"
       style="opacity:1;fill:#808080;fill-opacity:1;stroke:none;stroke-width:1.70000005;stroke-linecap:round;stroke-miterlimit:4;stroke-dasharray:none;stroke-dashoffset:0;stroke-opacity:1" />
    <g
       id="g8106"
       transform="matrix(1.0909091,0,0,1.0909091,46.369917,-244.88862)">
      <circle
         r="5.75"
         cy="1967.6122"
         cx="606.75"
         id="path8102"
         style="opacity:1;fill:#ffffff;fill-opacity:1;stroke:none;stroke-width:1.70000005;stroke-linecap:round;stroke-miterlimit:4;stroke-dasharray:none;stroke-dashoffset:0;stroke-opacity:1" />
      <circle
         style="opacity:1;fill:#ffffff;fill-opacity:1;stroke:none;stroke-width:1.70000005;stroke-linecap:round;stroke-miterlimit:4;stroke-dasharray:none;stroke-dashoffset:0;stroke-opacity:1"
         id="circle8104"
         cx="622.75"
         cy="1967.6122"
         r="5.75" />
    </g>
    <g
       id="g9566">
      <rect
         style="opacity:1;fill:#808080;fill-opacity:1;stroke:none;stroke-width:1.70000005;stroke-linecap:round;stroke-miterlimit:4;stroke-dasharray:none;stroke-dashoffset:0;stroke-opacity:1"
         id="rect4773-7-9-2-4-6-7"
         width="80"
         height="80"
         x="665.69257"
         y="1955.6427" />
      <path
         inkscape:connector-curvature="0"
         id="rect8138"
         d="m 715.89931,1985.1001 c -0.53411,0 -0.8886,0.01 -0.93429,0.025 -0.10614,0.036 -0.16602,2.9396 -0.16602,8.0404 l 0,7.9842 -3.11516,0 -3.11516,0 0,-7.9984 0,-7.9983 -2.86258,0 -2.86258,0 0,8.0141 0,8.0142 -2.39952,-0.066 c -2.71358,-0.075 -3.15806,-0.2133 -3.61216,-1.1253 -0.27445,-0.5512 -0.30753,-1.2743 -0.35335,-7.7227 l -0.0505,-7.1143 -2.86784,0 -2.86758,0 0.0713,7.5353 c 0.0756,7.9789 0.10533,8.2949 0.92823,9.9043 0.19265,0.3768 0.66714,0.9713 1.05453,1.3213 1.17914,1.0653 2.13276,1.4175 5.63465,2.0814 0.91611,0.1737 21.60899,0.2713 22.04503,0.1039 0.2389,-0.092 0.26626,-1.1753 0.26626,-10.5163 l 0,-10.4142 -2.78076,-0.05 c -0.76467,-0.014 -1.47838,-0.02 -2.01248,-0.019 z"
         style="opacity:1;fill:#ffffff;fill-opacity:1;stroke:none;stroke-width:1.70000005;stroke-linecap:round;stroke-miterlimit:4;stroke-dasharray:none;stroke-dashoffset:0;stroke-opacity:1" />
    </g>
    <rect
       y="1739.3622"
       x="703"
       height="80"
       width="80"
       id="rect4773-7-9-2-4-5"
       style="opacity:1;fill:#808080;fill-opacity:1;stroke:none;stroke-width:1.70000005;stroke-linecap:round;stroke-miterlimit:4;stroke-dasharray:none;stroke-dashoffset:0;stroke-opacity:1" />
    <path
       style="opacity:1;fill:#ffffff;fill-opacity:1;stroke:none;stroke-width:1.70000005;stroke-linecap:round;stroke-miterlimit:4;stroke-dasharray:none;stroke-dashoffset:0;stroke-opacity:1"
       d="m 743.12235,1765.223 c -1.79647,-0.01 -3.04997,0.2686 -4.34052,0.9494 -1.91341,1.0093 -3.47098,3.0308 -3.88824,5.0465 -0.14459,0.6985 -0.15073,0.8964 -0.10096,3.2393 l 0.053,2.4954 -0.52147,0 c -0.29755,0 -0.77631,-0.069 -1.11506,-0.1604 -0.89137,-0.241 -1.09262,-0.2514 -1.42734,-0.073 -1.40909,0.7495 -0.92669,1.6825 1.30866,2.5305 1.36777,0.519 1.68645,0.8868 1.50896,1.7418 -0.19577,0.943 -1.20929,2.5071 -2.2999,3.5491 -0.98573,0.9417 -1.92905,1.5057 -3.20435,1.9161 -0.77233,0.2485 -1.09513,0.496 -1.09513,0.8398 0,0.611 1.00806,1.1516 2.88938,1.5496 1.05944,0.2242 1.05492,0.2217 1.18577,0.6615 0.064,0.2152 0.15718,0.577 0.20697,0.804 0.11404,0.5198 0.18325,0.6534 0.36903,0.7124 0.0816,0.026 0.57968,-0.026 1.10697,-0.1154 0.7346,-0.1246 1.16051,-0.1548 1.82182,-0.1294 1.05099,0.041 1.59991,0.2317 2.73928,0.954 2.15417,1.3656 2.65142,1.6095 3.5273,1.7308 0.60875,0.084 2.37582,0.014 2.90697,-0.1165 0.56423,-0.138 0.99015,-0.3588 2.34012,-1.2127 1.74446,-1.1035 2.0281,-1.2283 2.96794,-1.3064 0.50815,-0.042 1.24086,-0.036 2.04966,0.019 1.48572,0.1 1.4614,0.1098 1.66843,-0.6691 0.14742,-0.5547 0.34417,-0.9924 0.50658,-1.1272 0.0578,-0.048 0.3434,-0.121 0.63475,-0.1623 0.29134,-0.041 0.81225,-0.164 1.15751,-0.2727 1.43806,-0.4527 1.99661,-0.8548 1.91351,-1.3773 -0.0601,-0.3782 -0.30639,-0.5551 -1.15001,-0.8262 -1.77767,-0.5715 -3.27809,-1.7446 -4.41416,-3.4511 -0.96794,-1.454 -1.22831,-2.3719 -0.82331,-2.9029 0.18729,-0.2455 1.01082,-0.6926 1.77174,-0.9619 0.53446,-0.1891 1.28486,-0.6702 1.47248,-0.944 0.34688,-0.5061 0.12513,-1.1009 -0.52827,-1.4172 -0.42727,-0.2069 -0.85819,-0.1984 -1.57591,0.031 -0.72805,0.2325 -1.55013,0.2616 -1.56207,0.055 -0.004,-0.072 -0.0137,-1.3641 -0.0212,-2.8707 -0.0152,-3.0523 -0.0174,-3.069 -0.56837,-4.2491 -0.40908,-0.8763 -0.83796,-1.4783 -1.57228,-2.2071 -1.60127,-1.589 -3.35481,-2.2646 -5.89825,-2.2724 z"
       id="rect8184"
       inkscape:connector-curvature="0" />
    <g
       id="g4588"
       inkscape:export-filename="/home/ekkyvalent/public_html/ep-personal-page/img/jumbotron-portfolio-soon.png"
       inkscape:export-xdpi="90"
       inkscape:export-ydpi="90">
      <rect
         style="opacity:1;fill:#0079ff;fill-opacity:1;stroke:none;stroke-width:1.70000005;stroke-linecap:round;stroke-miterlimit:4;stroke-dasharray:none;stroke-dashoffset:0;stroke-opacity:1"
         id="rect4156-7"
         width="2412.9543"
         height="1080"
         x="1577.5228"
         y="992.36218" />
      <g
         transform="matrix(0.80530859,0,0,0.80530859,583.05061,403.47095)"
         id="g4430">
        <path
           style="fill:#222936;fill-opacity:1;fill-rule:evenodd;stroke:none;stroke-width:1px;stroke-linecap:butt;stroke-linejoin:miter;stroke-opacity:1"
           d="m 2899.132,1445.0698 1.4349,2.8699 31.5676,4.7829 c 0,0 2.6307,-6.457 0.2392,-6.457 -2.3915,0 -33.2417,-1.1958 -33.2417,-1.1958 z"
           id="path4258"
           inkscape:connector-curvature="0" />
        <path
           style="fill:#784421;fill-rule:evenodd;stroke:none;stroke-width:1px;stroke-linecap:butt;stroke-linejoin:miter;stroke-opacity:1"
           d="m 2897.5117,1439.8622 c 0,0 5.9786,5.5003 5.62,3.9459 -0.3588,-1.5545 -0.3588,-4.3047 -0.3588,-4.3047 z"
           id="path4260"
           inkscape:connector-curvature="0" />
        <path
           inkscape:connector-curvature="0"
           id="path4481"
           d="m 2910.27,1365.6973 c -0.4211,5e-4 -0.8429,0.039 -1.2612,0.1153 l 0.4452,-0.03 c 0,0 -0.814,0 -1.5717,0.3216 -0.7578,0.3229 -1.6423,0.9884 -2.3135,2.0661 -1.0132,1.627 -1.3506,4.5145 -1.1569,8.3804 -0.3698,-0.5431 -0.7003,-1.1394 -1.1237,-1.6074 -0.7843,-0.8671 -1.6861,-1.6089 -2.8052,-2.0388 -1.1191,-0.4298 -2.4721,-0.4614 -3.6847,0.014 -1.9555,0.7618 -3.4062,2.2093 -3.9538,3.9235 -0.5476,1.7142 -0.3551,3.449 0,5.2562 0.7153,3.6145 2.246,7.7555 2.7586,12.5129 0.9822,9.1142 -5.4598,16.8927 3.2834,39.8187 l 0.4974,2.7368 c 1.797,76.2095 12.3149,123.8072 22.4565,152.428 5.0748,14.322 10.0551,23.8931 13.7986,29.9136 3.7258,5.992 6.3253,8.5622 6.3498,8.5863 0,10e-5 0.017,0.02 0.017,0.02 18.3826,19.882 35.8276,27.2104 51.5482,26.5587 15.7425,-0.6526 29.4497,-9.1886 40.6763,-20.055 22.4527,-21.7332 35.4527,-53.1614 35.4527,-53.1614 a 1.9848464,1.9848464 0 0 0 -1.5606,-2.7256 l -36.5272,-5.0722 a 1.9848464,1.9848464 0 0 0 -2.2503,1.8134 c 0,0 -0.9623,12.2334 -6.1326,23.6765 -2.5853,5.7215 -6.2043,11.1814 -11.1281,14.8427 -4.9236,3.6614 -11.1199,5.6388 -19.4533,4.3852 a 1.9848464,1.9848464 0 0 0 -0.069,-0.014 c 0,0 -2.2394,-0.2272 -6.1521,-2.069 -3.9126,-1.8416 -9.3217,-5.2725 -15.1395,-11.6636 -11.6354,-12.7824 -24.9386,-37.4787 -30.647,-85.0505 l -9.0289,-75.2606 -1.6321,0.2225 a 1.9848464,1.9848464 0 0 0 1.7145,-1.8545 l 0.6951,-12.1557 c 0.513,-0.4911 4.6757,-4.4485 9.5674,-9.9243 2.592,-2.9017 5.2466,-6.0783 7.3994,-9.1224 2.1525,-3.0439 3.8406,-5.876 4.3934,-8.578 0.934,-4.5652 0.4541,-7.9024 -0.772,-10.1829 -1.2263,-2.2802 -3.115,-3.6223 -5.2562,-3.286 -1.0327,0.1621 -1.763,0.624 -2.6049,1.2364 -0.8418,0.6125 -1.7299,1.4181 -2.646,2.418 -1.8321,1.9997 -3.7722,4.775 -5.3523,8.2263 -0.1392,0.3038 -0.028,0.1083 -0.1538,0.3105 -0.1337,-0.4808 -0.3258,-1.0132 -0.3436,-1.088 0.034,-0.5248 0.5309,-8.5244 -0.055,-16.725 -0.3025,-4.2361 -0.8679,-8.4347 -2.0744,-11.7187 -0.6032,-1.6418 -1.3592,-3.0873 -2.5334,-4.1818 -1.1742,-1.0945 -2.9378,-1.707 -4.6572,-1.3739 -2.5095,0.4862 -4.3515,2.2653 -5.4513,4.355 -0.7798,1.4819 -1.2162,3.1774 -1.5414,4.9266 -0.9558,-2.4505 -2.0811,-4.7674 -3.5721,-6.6053 -1.6121,-1.9876 -3.8064,-3.5281 -6.4486,-3.5197 l 0,0 z"
           style="fill:#dba053;fill-opacity:1;fill-rule:evenodd;stroke:none;stroke-width:1.7498734px;stroke-linecap:butt;stroke-linejoin:miter;stroke-opacity:1" />
        <path
           style="fill:#ffd3c0;fill-opacity:1;fill-rule:evenodd;stroke:none;stroke-width:1.7498734px;stroke-linecap:butt;stroke-linejoin:miter;stroke-opacity:1"
           d="m 2910.2795,1367.6815 c -0.2977,0 -0.6027,0.029 -0.9135,0.086 0,0 -4.7045,-0.2091 -2.8008,12.2564 2.394,15.6743 1.8783,15.8365 1.7143,13.2878 -0.1642,-2.549 -4.503,-20.9845 -10.7615,-18.5463 -6.259,2.4384 -1.026,9.5395 0.062,19.6299 1.0874,10.0903 -5.4853,16.8691 3.2415,39.565 l 0.5409,2.9782 c 3.5609,152.3114 42.0304,189.7501 42.0304,189.7501 72.6141,78.6622 124.4599,-45.9958 124.4599,-45.9958 l -36.5263,-5.0735 c 0,0 -3.8123,50.0062 -38.9857,44.7152 0,0 -42.1985,-4.8126 -53.6832,-100.519 l -9.2643,-77.202 0.3045,-0.041 0.7381,-12.8862 c 0,0 19.6155,-18.6836 21.3534,-27.1778 1.7376,-8.4942 -2.0133,-11.3875 -3.7732,-11.1111 -1.7602,0.2763 -6.1263,4.2337 -9.1082,10.7467 -2.9817,6.5133 -4.2973,-1.3891 -4.2973,-1.3891 0,0 2.2149,-34.0422 -6.9463,-32.2673 -7.3804,1.4299 -6.2064,16.8688 -5.4706,22.8237 0.2232,1.4321 0.3307,2.3374 0.3307,2.3374 0,0 -0.1531,-0.9001 -0.3307,-2.3374 -0.992,-6.364 -4.3779,-23.6565 -11.9137,-23.6298 z"
           id="path4279-4"
           inkscape:connector-curvature="0" />
        <path
           style="fill:#000000;fill-opacity:1;fill-rule:evenodd;stroke:none;stroke-width:1px;stroke-linecap:butt;stroke-linejoin:miter;stroke-opacity:1"
           d="m 3281.6479,1277.177 c 0,0 -4.6367,14.5987 -11.4626,40.757 -3.916,15.0066 -45.9768,69.6087 -73.8469,51.0569 5.5168,-11.6605 48.5622,-94.0155 48.5622,-94.0155 z"
           id="path4225-1"
           inkscape:connector-curvature="0"
           sodipodi:nodetypes="csccc" />
        <path
           style="fill:#27083e;fill-opacity:1;fill-rule:evenodd;stroke:none;stroke-width:0.95149595px;stroke-linecap:butt;stroke-linejoin:miter;stroke-opacity:1"
           d="m 3130.8999,1415.1253 83.2863,-13.3178 c 0,0 -2.1309,26.3591 -7.8936,26.2644 -5.7626,-0.094 -70.8969,13.3742 -72.2042,10.6286 -1.3071,-2.7458 -3.1885,-23.5752 -3.1885,-23.5752 z"
           id="path4238-0"
           inkscape:connector-curvature="0" />
        <path
           style="fill:#4c145a;fill-opacity:1;fill-rule:evenodd;stroke:none;stroke-width:1px;stroke-linecap:butt;stroke-linejoin:miter;stroke-opacity:1"
           d="m 3074.1888,1793.0307 c 0,0 31.6007,11.5956 95.5217,7.199 63.9211,-4.3969 136.1659,5.8575 131.2633,-9.4479 -4.9025,-15.3054 -216.7409,-5.4039 -216.7409,-5.4039 z"
           id="path4335"
           inkscape:connector-curvature="0"
           sodipodi:nodetypes="csscc" />
        <path
           style="fill:#342f6c;fill-opacity:1;fill-rule:evenodd;stroke:none;stroke-width:1px;stroke-linecap:butt;stroke-linejoin:miter;stroke-opacity:1"
           d="m 3290.3091,1755.2598 c 0,0 -50.7676,0.248 -102.3272,0.6496 -25.78,0.2007 -51.7552,0.4384 -71.6888,0.7047 -9.9665,0.1336 -18.4221,0.2757 -24.5945,0.4211 -3.0863,0.073 -5.6019,0.1461 -7.4619,0.2222 -1.86,0.077 -2.7663,0.076 -3.7732,0.273 a 2.5363787,2.5363787 0 0 0 -2.0442,2.3152 c 0,0 -6.3062,91.803 -8.9347,195.0067 -0.9929,38.9832 -1.4573,79.5842 -0.8612,117.509 l 61.4928,0 c -1.6957,-64.1875 0.2411,-142.7798 12.3566,-220.5981 3.309,0.4576 16.8078,2.2842 33.944,3.5679 9.6818,0.7254 19.9354,1.2078 28.9646,1.0031 7.2159,-0.1637 13.5213,-0.7301 18.4365,-2.1098 0.094,5.1926 1.5313,83.2366 5.009,168.5689 0.6743,16.5428 1.4208,33.2388 2.2474,49.568 l 63.7466,0 c -0.029,-10.3241 -0.02,-20.7963 0.023,-31.2839 0.1755,-42.529 0.9177,-85.2787 2.0549,-119.1279 0.5686,-16.9245 1.2374,-31.6281 1.9787,-42.9444 0.7415,-11.316 1.6223,-19.4304 2.368,-22.4127 3.7295,-14.9183 1.4531,-39.4179 -1.5533,-60.5681 -3.0065,-21.1503 -6.8925,-38.7753 -6.8925,-38.7753 a 2.5363787,2.5363787 0 0 0 -2.4909,-1.9892 z"
           id="path4633"
           inkscape:connector-curvature="0" />
        <path
           style="fill:#342f96;fill-opacity:1;fill-rule:evenodd;stroke:none;stroke-width:1px;stroke-linecap:butt;stroke-linejoin:miter;stroke-opacity:1"
           d="m 3290.324,1757.7949 c 0,0 -203.066,0.9913 -209.3738,2.2241 0,0 -11.9652,174.191 -9.7917,312.3423 l 56.3844,0 c -1.721,-64.9583 0.2807,-144.6543 12.7649,-223.4338 0,0 68.1388,9.7361 85.9691,1.8115 0,0 2.1058,118.2592 7.339,221.6223 l 58.6677,0 c -0.2609,-94.1076 2.5671,-200.6471 6.501,-216.3826 7.0042,-28.0175 -8.4606,-98.1838 -8.4606,-98.1838 z"
           id="path4325"
           inkscape:connector-curvature="0" />
        <path
           inkscape:connector-curvature="0"
           id="path4476"
           d="m 3335.5469,1520.8537 a 2.8956685,2.8956685 0 0 0 -0.5083,0.052 l -29.7899,5.6519 a 2.8956685,2.8956685 0 0 0 -2.3162,3.3276 c 0,0 26.7206,158.8464 4.9402,262.067 a 2.8956685,2.8956685 0 0 0 -0.027,0.1622 l -1.72,7.3827 c -0.8243,0.5558 -5.2437,3.5038 -10.875,7.9656 -3.0663,2.429 -6.2474,5.122 -8.9272,7.7922 -2.6797,2.6702 -4.893,5.1922 -5.9982,8.0121 -1.7545,4.4771 -1.9021,8.0659 -0.9972,10.7845 0.9047,2.7187 2.711,4.7179 5.4649,4.7616 1.3204,0.022 2.1908,-0.3712 3.1955,-0.8654 1.0049,-0.4941 2.0601,-1.1683 3.1737,-2.0278 1.6745,-1.2926 3.4484,-3.1467 5.1737,-5.2837 -0.5791,2.5786 -1.7333,7.9682 -2.4042,14.6202 -0.4302,4.2678 -0.6052,8.549 0.052,12.1556 0.3288,1.8031 0.8455,3.4821 1.9509,4.9402 1.1055,1.458 3.0802,2.5511 5.0996,2.5114 2.8705,-0.056 5.2739,-1.7069 6.8252,-3.7258 0.5597,-0.7288 0.9733,-1.5593 1.3984,-2.3796 0.5593,2.0142 1.2399,3.9554 2.3217,5.6216 1.4906,2.2952 4.0251,4.1533 7.0671,4.2425 0.2884,0.038 0.8371,0.1432 1.621,-0.041 0.9701,-0.2282 2.1427,-0.8425 3.1049,-1.9206 1.1292,-1.2651 1.9067,-3.2994 2.4673,-5.8801 0.6059,0.8412 1.233,1.6801 2.2064,2.2615 1.1985,0.7158 2.7978,1.0312 4.2809,0.7309 2.2455,-0.4547 4.2388,-1.8306 5.1931,-3.66 0.9542,-1.8293 1.0429,-3.7192 0.9973,-5.6243 -0.091,-3.8104 -0.8816,-8.0767 -0.5826,-12.7188 0.559,-8.6717 8.1952,-15.6949 3.6078,-39.6897 l 2.0223,-11.7406 a 2.8956685,2.8956685 0 0 0 0.03,-0.7034 c 13.1162,-48.0778 11.7967,-114.1975 7.2646,-168.6556 -4.5615,-54.8145 -12.4356,-97.7529 -12.4356,-97.7529 a 2.8956685,2.8956685 0 0 0 -2.8768,-2.374 z"
           style="fill:#dba053;fill-opacity:1;fill-rule:evenodd;stroke:none;stroke-width:1.5;stroke-linecap:butt;stroke-linejoin:miter;stroke-miterlimit:4;stroke-dasharray:none;stroke-opacity:1" />
        <path
           style="fill:#ffd3c0;fill-opacity:1;fill-rule:evenodd;stroke:none;stroke-width:1.5;stroke-linecap:butt;stroke-linejoin:miter;stroke-miterlimit:4;stroke-dasharray:none;stroke-opacity:1"
           d="m 3335.5778,1523.7492 -29.7917,5.6517 c 0,0 26.9218,158.8823 4.9203,263.1511 l 0.014,0 -2.013,8.6429 c 0,0 -22.5197,15.0577 -25.6833,23.1302 -3.1636,8.0723 0.037,11.5638 1.8189,11.592 1.7816,0.028 6.7594,-3.1248 10.8102,-9.0324 4.0509,-5.9079 3.9965,2.1037 3.9965,2.1037 0,0 -7.9987,33.1627 1.3312,32.9791 7.527,-0.148 9.0019,-15.608 9.2913,-21.5821 0.025,-1.4299 0.072,-2.3299 0.072,-2.3299 0,0 0,0.8991 -0.072,2.3299 -0.1168,6.6656 0.288,25.4976 8.6141,25.4179 0,0 4.5997,1.0107 4.8537,-11.5969 0.3196,-15.8528 0.855,-15.9242 0.5812,-13.3848 -0.2738,2.5393 0.8518,21.4448 7.4351,20.1118 6.5833,-1.3331 2.6403,-9.2236 3.293,-19.3514 0.6526,-10.1278 8.287,-15.6838 3.5666,-39.537 l 2.1009,-12.1967 -0.1322,0 c 26.3864,-94.8676 -5.0033,-266.0927 -5.0033,-266.0927 z"
           id="path4266"
           inkscape:connector-curvature="0" />
        <path
           inkscape:connector-curvature="0"
           style="fill:#dba053;fill-opacity:1;fill-rule:evenodd;stroke:none;stroke-width:1.5;stroke-linecap:butt;stroke-linejoin:miter;stroke-miterlimit:4;stroke-dasharray:none;stroke-opacity:1"
           d="m 3170.8753,1383.2244 c -11.1084,0.024 -22.1847,3.5749 -31.2377,10.0124 a 2.8764536,2.8764536 0 0 0 -1.1762,2.7807 l 3.1572,20.5029 c 0.808,5.2476 0.1672,8.3551 -0.503,10.0728 -0.3349,0.8589 -0.68,1.3804 -0.8983,1.6595 -0.2185,0.2793 -0.1379,0.1841 -0.1379,0.1841 a 2.8764536,2.8764536 0 0 0 -0.6183,0.6512 c -0.03,0.033 -0.078,0.082 -0.1759,0.1759 -0.2371,0.2327 -0.6313,0.596 -1.1401,1.0468 -1.0179,0.9018 -2.5026,2.1666 -4.3469,3.7039 -3.6885,3.0743 -8.8209,7.254 -14.7081,12.0126 a 2.8764536,2.8764536 0 0 0 -1.0028,2.8493 c 2.6064,11.9324 9.3927,22.91 18.901,30.5759 9.5083,7.6656 21.6757,11.9691 33.8893,11.9851 14.165,0 28.242,-5.8323 38.2582,-15.8484 10.0161,-10.016 15.8485,-24.0932 15.8485,-38.258 -0.014,-4.7011 -0.6327,-9.3987 -1.852,-13.9388 a 2.8764536,2.8764536 0 0 0 -2.047,-2.0387 c -4.4156,-1.1578 -7.7168,-1.923 -9.9272,-2.0965 -4.7396,-0.3718 -6.9056,-2.0846 -8.144,-3.5884 -1.2349,-1.4995 -1.4032,-2.6339 -1.4041,-2.6404 l -2.5444,-20.5304 a 2.8764536,2.8764536 0 0 0 -1.4288,-2.1431 c -8.104,-4.6292 -17.4207,-7.1108 -26.7538,-7.1247 a 2.8764536,2.8764536 0 0 0 -0.014,0 z"
           id="path4613" />
        <path
           inkscape:connector-curvature="0"
           style="fill:#4c145a;fill-opacity:1;fill-rule:evenodd;stroke:none;stroke-width:1.89999998;stroke-linecap:butt;stroke-linejoin:miter;stroke-miterlimit:4;stroke-dasharray:none;stroke-opacity:1"
           d="m 3238.7147,1420.7077 a 2.7795549,2.7795549 0 0 0 -1.7805,0.7391 c 0,0 -13.4132,12.4446 -26.9738,24.9486 -6.7801,6.2521 -13.5986,12.52 -18.7882,17.2497 -2.5947,2.3649 -4.7842,4.3471 -6.3497,5.7426 -0.6269,0.5587 -1.0686,0.944 -1.4755,1.2968 -0.4826,-0.1718 -0.9856,-0.353 -1.7421,-0.6456 -1.9728,-0.763 -4.7719,-1.8963 -8.1,-3.2724 -6.6561,-2.7524 -15.4415,-6.4776 -24.1902,-10.2186 -17.4976,-7.4817 -34.8539,-15.0295 -34.8539,-15.0295 l 0.069,0.05 c -0.1761,-0.077 -0.3733,-0.1619 -0.3737,-0.1621 0,-5e-4 -0.5753,-0.1139 -0.7501,-0.1181 -0.3501,-0.014 -0.505,0.03 -0.6293,0.055 -0.2483,0.05 -0.3397,0.089 -0.4314,0.121 -0.1835,0.063 -0.2968,0.1125 -0.4285,0.1703 -0.2636,0.1153 -0.5576,0.2538 -0.9069,0.423 a 2.7795549,2.7795549 0 0 0 -1.5056,1.9371 c -3.5487,1.2864 -16.2979,6.2094 -32.9498,20.3656 -19.1431,16.2739 -41.0607,43.6361 -52.2849,87.6415 l -12.4054,46.2894 a 2.7795549,2.7795549 0 0 0 2.3574,3.4813 l 56.6867,6.7097 a 2.7795549,2.7795549 0 0 0 2.9426,-1.8189 l 5.2453,-14.5597 c -0.3789,27.1021 -1.039,62.2429 -2.2999,99.7558 -1.476,43.9167 -3.477,85.4002 -5.6078,100.8494 a 2.7795549,2.7795549 0 0 0 2.9564,3.1513 c 71.9573,-5.2905 128.7207,-8.2462 167.3999,-8.4021 19.3397,-0.078 34.1789,0.5546 43.987,1.9014 4.9039,0.6734 8.5631,1.5534 10.7185,2.4591 1.0777,0.4529 1.7573,0.9157 2.0306,1.1842 0.2732,0.2684 0.1571,0.1814 0.1565,0.1073 l 5.5557,-0.104 -6.2288,-207.587 a 2.7795549,2.7795549 0 0 0 1.5387,0.4864 l 61.6158,0.6704 a 2.7795549,2.7795549 0 0 0 2.7779,-3.1901 c -12.0792,-80.4235 -42.5019,-121.0265 -70.1801,-141.3055 -25.1563,-18.4315 -47.1738,-19.9379 -51.1557,-20.0771 a 2.7795549,2.7795549 0 0 0 -1.7694,-1.0469 c -0.4187,-0.066 -1.3217,-0.2143 -1.3217,-0.2143 a 2.7795549,2.7795549 0 0 0 -0.555,-0.033 z"
           id="path4621" />
        <path
           inkscape:connector-curvature="0"
           style="fill:#ffd3c0;fill-opacity:1;fill-rule:evenodd;stroke:none;stroke-width:1.5;stroke-linecap:butt;stroke-linejoin:miter;stroke-miterlimit:4;stroke-dasharray:none;stroke-opacity:1"
           d="m 3170.8808,1386.1012 a 51.229721,51.229721 0 0 0 -29.5755,9.4794 l 3.157,20.5028 c 1.7399,11.2971 -2.6378,14.6395 -2.6378,14.6395 -0.3752,0.8072 -9.142,8.0161 -20.9259,17.5409 a 51.229721,51.229721 0 0 0 49.9822,40.297 51.229721,51.229721 0 0 0 51.2299,-51.2297 51.229721,51.229721 0 0 0 -1.753,-13.1999 c -4.3553,-1.1419 -7.7464,-1.8797 -9.4218,-2.0111 -10.8245,-0.8492 -12.161,-8.6194 -12.161,-8.6194 l -2.5607,-20.6539 a 51.229721,51.229721 0 0 0 -25.3334,-6.7456 z"
           id="path4217-9" />
        <path
           inkscape:connector-curvature="0"
           style="fill:#6a278a;fill-opacity:1;fill-rule:evenodd;stroke:none;stroke-width:1.89999998;stroke-linecap:butt;stroke-linejoin:miter;stroke-miterlimit:4;stroke-dasharray:none;stroke-opacity:1"
           d="m 3238.8245,1423.4857 c 0,0 -53.6667,49.7825 -54.8485,50.2789 -1.1815,0.4966 -70.6224,-29.6964 -70.6224,-29.6964 -0.025,-0.03 -0.4695,0.1679 -1.132,0.4892 l 0.9066,0.8628 c 0,0 -64.0089,20.3984 -86.166,107.2677 l -12.4137,46.3224 56.6864,6.7097 11.0319,-30.6224 c -0.457,52.7039 -3.9467,186.2441 -8.3254,217.9894 143.9768,-10.5854 227.1789,-11.8369 227.2737,0 l -7.5395,-251.2962 0.052,0 5.6053,41.341 61.6158,0.6703 c -23.9961,-159.7674 -120.1543,-159.1266 -120.1543,-159.1266 l -1.4068,-0.7033 c 0,0 0.7102,-0.2451 0.7721,-0.2666 -0.4349,-0.069 -1.3353,-0.2143 -1.3353,-0.2143 z"
           id="path4286-7" />
        <path
           style="fill:#4c145a;fill-opacity:1;fill-rule:evenodd;stroke:none;stroke-width:1.17920637px;stroke-linecap:butt;stroke-linejoin:miter;stroke-opacity:1"
           d="m 3213.9665,1401.8255 -32.6976,72.9642 c 0,0 57.5381,-23.0012 60.96,-45.3161 -0.2032,-10.8625 -9.8059,-22.3201 -9.8059,-22.3201 z"
           id="path4240-9"
           inkscape:connector-curvature="0"
           sodipodi:nodetypes="ccccc" />
        <rect
           style="opacity:1;fill:#4c145a;fill-opacity:1;stroke:none;stroke-opacity:1"
           id="rect4280-4"
           width="22.200874"
           height="59.78849"
           x="2907.9453"
           y="1935.187"
           transform="matrix(0.98834825,-0.15220954,0.15220954,0.98834825,0,0)" />
        <circle
           style="opacity:1;fill:#ececec;fill-opacity:1;stroke:none;stroke-opacity:1"
           id="path4282-5"
           cx="2918.5151"
           cy="1955.5234"
           r="5.2846055"
           transform="matrix(0.98834825,-0.15220954,0.15220954,0.98834825,0,0)" />
        <circle
           r="5.2846055"
           cy="1980.3921"
           cx="2918.5151"
           id="circle4284-7"
           style="opacity:1;fill:#ececec;fill-opacity:1;stroke:none;stroke-opacity:1"
           transform="matrix(0.98834825,-0.15220954,0.15220954,0.98834825,0,0)" />
        <path
           inkscape:connector-curvature="0"
           style="fill:#dba053;fill-opacity:1;fill-rule:evenodd;stroke:none;stroke-width:1.5;stroke-linecap:butt;stroke-linejoin:miter;stroke-miterlimit:4;stroke-dasharray:none;stroke-opacity:1"
           d="m 3150.5841,1132.659 c -6.6528,0.2399 -13.6855,0.9429 -21.1211,2.1706 -51.1506,8.4452 -76.0974,33.291 -87.7981,56.0656 -11.694,22.7616 -10.3793,43.5263 -10.3779,43.55 0,0 0,0.014 0,0.014 0.014,0.1393 3.1774,69.3236 23.572,117.2666 a 2.9845584,2.9845584 0 0 0 0.052,0.1153 c 8.8348,18.5315 17.1273,32.8315 31.9524,42.5966 14.8249,9.7651 35.7155,14.7569 69.3587,15.7826 a 2.9845584,2.9845584 0 0 0 0.3406,-0.014 c 0,0 28.5365,-2.3225 53.9334,-16.7276 a 2.9845584,2.9845584 0 0 0 0.038,-0.025 c 0,0 12.6028,-7.442 25.8525,-24.4679 12.9236,-16.6067 26.587,-42.5817 30.6198,-79.8546 8.9536,0.5278 19.3934,-4.1189 26.3937,-13.2628 7.846,-10.2484 10.6654,-26.158 0.6237,-45.1081 a 2.9845584,2.9845584 0 0 0 -0.1428,-0.2362 c 0,0 -3.4729,-5.4111 -10.0124,-8.2676 -5.6666,-2.4755 -13.8481,-2.2874 -22.9154,3.9181 -1.5052,-8.5023 -5.8044,-27.0719 -17.0216,-45.5505 -15.1781,-25.0035 -43.4518,-49.7625 -93.3482,-47.9627 z"
           id="path4486" />
        <path
           style="fill:#ffd3c0;fill-opacity:1;fill-rule:evenodd;stroke:none;stroke-width:1.5;stroke-linecap:butt;stroke-linejoin:miter;stroke-miterlimit:4;stroke-dasharray:none;stroke-opacity:1"
           d="m 3258.7434,1231.3442 c 20.2946,-18.0287 32.6439,0.8121 32.6439,0.8121 19.2498,36.3277 -11.1999,57.4178 -26.9897,53.9396 -7.1416,76.4372 -55.3744,104.7841 -55.3744,104.7841 -24.6782,13.9974 -52.71,16.3516 -52.71,16.3516 -66.7692,-2.0353 -81.1512,-19.8491 -98.709,-56.6781 -20.0497,-47.1318 -23.3393,-116.2892 -23.3393,-116.2892 0,0 -5.0878,-79.8517 95.6832,-96.4898 117.0968,-19.3334 128.7953,93.5697 128.7953,93.5697 z"
           id="path4184-2"
           inkscape:connector-curvature="0"
           sodipodi:nodetypes="cscccccsc" />
        <path
           style="fill:#4c145a;fill-opacity:1;fill-rule:evenodd;stroke:none;stroke-width:1px;stroke-linecap:butt;stroke-linejoin:miter;stroke-opacity:1"
           d="m 3181.0559,1474.5803 -50.195,-59.4555 -22.8449,22.5657 c 0,0 19.4456,40.8146 73.0399,36.8898 z"
           id="path4261-1"
           inkscape:connector-curvature="0" />
        <ellipse
           style="opacity:1;fill:#000000;fill-opacity:1;stroke:none;stroke-opacity:1"
           id="path4186-8"
           cx="2829.4658"
           cy="1768.5956"
           rx="6.9347739"
           ry="12.849728"
           transform="matrix(0.9866423,-0.16290173,0.16290173,0.9866423,0,0)" />
        <ellipse
           ry="12.849728"
           rx="6.9347739"
           cy="1767.442"
           cx="2931.0745"
           id="ellipse4188-0"
           style="opacity:1;fill:#000000;fill-opacity:1;stroke:none;stroke-opacity:1"
           transform="matrix(0.9866423,-0.16290173,0.16290173,0.9866423,0,0)" />
        <path
           style="fill:#000000;fill-rule:evenodd;stroke:none;stroke-width:1px;stroke-linecap:butt;stroke-linejoin:miter;stroke-opacity:1"
           d="m 3119.5512,1352.0355 c 0,0 23.9135,6.7227 33.3486,-7.8449 l -1.5645,-0.1802 c 0,0 -9.751,11.7693 -30.6554,6.4502 z"
           id="path4190-7"
           inkscape:connector-curvature="0"
           sodipodi:nodetypes="cccc" />
        <path
           style="fill:#000000;fill-rule:evenodd;stroke:none;stroke-width:1px;stroke-linecap:butt;stroke-linejoin:miter;stroke-opacity:1"
           d="m 3193.5152,1227.2142 c 0,0 -8.3248,12.2074 -21.3251,-2.7103 0,0 11.4675,6.2117 21.3251,2.7103 z"
           id="path4192-2"
           inkscape:connector-curvature="0" />
        <path
           inkscape:connector-curvature="0"
           id="path4194-2"
           d="m 3057.2189,1250.856 c 0,0 11.7194,8.9986 19.4133,-9.232 0,0 -8.9553,9.481 -19.4133,9.232 z"
           style="fill:#000000;fill-rule:evenodd;stroke:none;stroke-width:1px;stroke-linecap:butt;stroke-linejoin:miter;stroke-opacity:1" />
        <path
           style="fill:#000000;fill-opacity:1;fill-rule:evenodd;stroke:none;stroke-width:1px;stroke-linecap:butt;stroke-linejoin:miter;stroke-opacity:1"
           d="m 3214.6067,1233.1678 46.7981,-5.6453 -2.465,14.0246 -45.0699,5.7354 z"
           id="path4219-1"
           inkscape:connector-curvature="0" />
        <ellipse
           style="opacity:1;fill:#fd9ea0;fill-opacity:1;stroke:none;stroke-opacity:1"
           id="path4384-7"
           cx="2968.9629"
           cy="1761.4172"
           rx="13.869549"
           ry="5.0990996"
           transform="matrix(0.98834825,-0.15220954,0.15220954,0.98834825,0,0)" />
        <ellipse
           ry="5.0990996"
           rx="13.869549"
           cy="1762.3069"
           cx="2833.6465"
           id="ellipse4386-0"
           style="opacity:1;fill:#fd9ea0;fill-opacity:1;stroke:none;stroke-opacity:1"
           transform="matrix(0.98834825,-0.15220954,0.15220954,0.98834825,0,0)" />
        <path
           style="fill:#000000;stroke:none"
           d="m 3166.6188,1237.9128 c -13.6566,2.3998 -26.3973,5.9555 -32.2172,11.241 0,0 -14.6977,10.6775 -28.8048,3.3969 0,0 -12.8271,-2.8468 -37.9987,2.6821 l -41.4273,10.1405 3.4091,15.6485 6.709,-0.8165 c 0,0 4.0913,34.7533 25.5523,38.3488 0,0 44.5885,7.1793 53.2019,-33.7808 l 2.2058,-11.3338 c 0,0 0.9851,-7.607 5.6199,-9.4705 0,0 3.8428,-1.4453 7.572,6.1759 11.1498,19.3011 18.0807,23.0795 18.0807,23.0795 15.4749,15.5667 48.3218,1.6323 48.3218,1.6323 19.2079,-8.3882 13.3149,-42.5332 13.3149,-42.5332 l 5.867,-5.4239 -1.3585,-13.7162 c 0,0 -25.2865,0.7301 -48.0479,4.7294 z m 6.2751,5.0798 c 2.8997,-0.4694 4.7405,-0.6851 4.7405,-0.6851 20.7586,-3.1529 25.1801,8.7535 25.1801,8.7535 0,0 13.023,34.0646 -11.0376,41.3322 0,0 -25.8221,10.6208 -41.4733,-6.0151 -18.5917,-18.1913 -10.6063,-30.1381 -10.6063,-30.1381 6.2918,-8.0403 24.4975,-11.8363 33.1968,-13.247 z m -103.7214,17.6591 c 8.6906,-1.4607 27.1108,-3.6632 35.6536,1.9279 0,0 11.3935,8.6984 -0.3634,31.9006 -9.4732,20.7842 -37.3312,19.0747 -37.3312,19.0747 -25.1196,0.8525 -23.7458,-35.6375 -23.7458,-35.6375 0,0 0.4067,-12.7036 21.0772,-16.391 0,0 1.8124,-0.3878 4.7096,-0.8749 z"
           id="path5411-2"
           inkscape:connector-curvature="0"
           sodipodi:nodetypes="sccccccccccccccccscccccccccccccccc" />
        <path
           style="fill:#333333;fill-rule:evenodd;stroke:none;stroke-width:1px;stroke-linecap:butt;stroke-linejoin:miter;stroke-opacity:1"
           d="m 3024.1164,1222.972 5.0759,7.1634 -0.8234,-9.3661 z"
           id="path4345-5"
           inkscape:connector-curvature="0" />
        <path
           style="fill:#000000;fill-rule:evenodd;stroke:none;stroke-width:1px;stroke-linecap:butt;stroke-linejoin:miter;stroke-opacity:1"
           d="m 3172.7023,1097.3432 c -113.141,-4.3068 -130.5052,61.8124 -130.5052,61.8124 -32.2677,49.0772 -4.3258,130.9543 -4.4932,130.5678 0,0 19.5915,-39.1754 18.5886,-85.3164 0,0 77.88,30.9672 149.529,14.1761 0,0 -21.6563,-3.4531 -32.2347,-14.9368 0,0 24.5874,16.1995 65.4598,-4.1927 0,0 2.573,28.1031 12.9996,51.1887 0,0 11.0061,39.1145 9.6771,31.0649 -1.3291,-8.0497 4.92,-58.4572 4.92,-58.4572 0,0 7.8061,-5.1379 19.7334,0.4664 0,0 13.0883,-114.8317 -113.6744,-126.3732 z"
           id="path4223-5"
           inkscape:connector-curvature="0"
           sodipodi:nodetypes="ccccccsccccc" />
        <path
           style="fill:#1a1a1a;fill-rule:evenodd;stroke:none;stroke-width:1px;stroke-linecap:butt;stroke-linejoin:miter;stroke-opacity:1"
           d="m 3232.979,1196.9663 c 0,0 47.8445,7.4594 53.659,11.103 0,0 6.4464,-100.612 -102.8595,-119.0143 0,0 -35.6677,-6.6785 -89.032,4.7126 -63.484,13.5514 -59.8307,77.3858 -59.8307,77.3858 l -2.0457,45.678 z"
           id="path4308-6"
           inkscape:connector-curvature="0"
           sodipodi:nodetypes="cccsccc" />
        <text
           xml:space="preserve"
           style="font-style:normal;font-weight:normal;font-size:57.7793808px;line-height:125%;font-family:sans-serif;letter-spacing:0px;word-spacing:0px;fill:#000000;fill-opacity:1;stroke:none;stroke-width:1px;stroke-linecap:butt;stroke-linejoin:miter;stroke-opacity:1"
           x="3129.8787"
           y="1438.6445"
           id="text4310-6"
           sodipodi:linespacing="125%"
           transform="matrix(0.99658229,-0.08844083,-0.05305888,1.0081381,0,0)"><tspan
             sodipodi:role="line"
             id="tspan4312-5"
             x="3129.8787"
             y="1438.6445"
             style="font-style:normal;font-variant:normal;font-weight:bold;font-stretch:condensed;font-family:'Roboto Condensed';-inkscape-font-specification:'Roboto Condensed, Bold Condensed';fill:#ffff00;stroke:none">SAYUKI</tspan></text>
        <path
           style="fill:#333333;fill-rule:evenodd;stroke:none;stroke-width:1.16950405px;stroke-linecap:butt;stroke-linejoin:miter;stroke-opacity:1"
           d="m 3236.0661,1197.6888 c -70.7363,-2.9526 -212.0313,25.3233 -212.0313,25.3233 0,0 -59.0673,-37.5183 -20.9697,-49.1449 0,0 108.4903,-21.6032 158.7734,-24.1636 48.3535,-2.4622 74.2276,47.9852 74.2276,47.9852 z"
           id="path4288-6"
           inkscape:connector-curvature="0"
           sodipodi:nodetypes="cccsc" />
        <g
           id="g4320"
           transform="matrix(0.44307199,0.02567251,-0.02567251,0.44307199,4345.2681,2380.1415)"
           style="stroke:none">
          <path
             inkscape:connector-curvature="0"
             id="path4205"
             d="m -2903.3931,-2174.1417 c 0,0 52.0207,18.4497 92.8443,-22.3441 0,0 29.3912,-24.3261 49.5384,-10.8742 0,0 17.683,15.499 5.0927,32.7675 0,0 -43.4669,46.0462 -97.4571,56.9186 0,0 -53.4579,16.0962 -79.0009,-12.9095 0,0 -8.7365,-9.3635 -2.2667,-26.0242 0,0 8.5581,-19.1384 31.2493,-17.5341 z"
             style="fill:#800000;fill-rule:evenodd;stroke:none;stroke-width:1px;stroke-linecap:butt;stroke-linejoin:miter;stroke-opacity:1" />
          <path
             id="path4207"
             d="m -2842.2656,-2133.3327 c -11.699,1.895 -23.2691,7.1359 -29.6917,19.2576 10.911,-1.2933 18.5823,-3.5987 18.5823,-3.5987 14.6361,-2.9473 28.4861,-8.4888 40.9192,-14.9879 -6.9883,-1.2033 -18.4524,-2.5105 -29.8098,-0.671 z"
             style="fill:#ff5555;fill-rule:evenodd;stroke:none;stroke-width:1px;stroke-linecap:butt;stroke-linejoin:miter;stroke-opacity:1"
             inkscape:connector-curvature="0" />
          <path
             id="path4239"
             d="m -2775.1543,-2211.4141 c -17.4552,0.081 -35.3945,14.9278 -35.3945,14.9278 -40.8236,40.7938 -92.8438,22.3437 -92.8438,22.3437 -2.1295,-0.1505 -4.1343,-0.1174 -6.0195,0.064 1.8723,3.849 4.0403,8.1766 6.7383,13.3476 23.0071,44.0972 123.701,-30.5786 142.916,-45.3945 -0.7449,-0.7793 -1.252,-1.2344 -1.252,-1.2344 -4.4072,-2.9426 -9.257,-4.0775 -14.1445,-4.0547 z"
             style="fill:#ffffff;fill-rule:evenodd;stroke:none;stroke-width:1px;stroke-linecap:butt;stroke-linejoin:miter;stroke-opacity:1"
             inkscape:connector-curvature="0" />
        </g>
        <path
           style="fill:#a05a2c;fill-rule:evenodd;stroke:none;stroke-width:1px;stroke-linecap:butt;stroke-linejoin:miter;stroke-opacity:1"
           d="m 2899.6104,1430.4818 34.9156,4.0654 c 0,0 0.7175,12.9142 -0.2391,12.1967 -0.9567,-0.7174 -38.0246,-6.2179 -37.3071,-7.1744 0.7175,-0.9568 2.6306,-9.0877 2.6306,-9.0877 z"
           id="path4254"
           inkscape:connector-curvature="0" />
        <path
           style="fill:#22295a;fill-opacity:1;fill-rule:evenodd;stroke:none;stroke-width:1px;stroke-linecap:butt;stroke-linejoin:miter;stroke-opacity:1"
           d="m 2897.9363,1443.1566 33.9591,1.4349 c 0,0 3.109,5.5004 1.1957,4.783 -1.9132,-0.7176 -34.1983,-4.3047 -34.1983,-4.3047 z"
           id="path4256"
           inkscape:connector-curvature="0" />
        <path
           style="fill:#4d4d2f;fill-opacity:0.33974358;fill-rule:evenodd;stroke:none;stroke-width:1px;stroke-linecap:butt;stroke-linejoin:miter;stroke-opacity:1"
           d="m 2929.4411,1404.8248 c 0,0 -10.3153,3.0438 -8.9626,18.0941 0,0 3.2975,-14.0356 8.9626,-18.0941 z"
           id="path4296"
           inkscape:connector-curvature="0" />
        <path
           inkscape:connector-curvature="0"
           style="opacity:1;fill:#ffffff;fill-opacity:1;stroke:none;stroke-width:1.89999998;stroke-miterlimit:4;stroke-dasharray:none;stroke-opacity:1"
           d="m 2776.9601,1086.1853 a 151.20228,126.33348 0 0 0 -151.2027,126.3338 151.20228,126.33348 0 0 0 151.2027,126.3337 151.20228,126.33348 0 0 0 100.3492,-32.0429 c 15.1527,13.2668 49.9369,36.6319 104.5697,33.0376 0,0 -59.0992,-20.2475 -75.0435,-62.9238 a 151.20228,126.33348 0 0 0 21.3271,-64.4046 151.20228,126.33348 0 0 0 -151.2025,-126.3338 z"
           id="path4470" />
        <text
           xml:space="preserve"
           style="font-style:normal;font-weight:normal;font-size:86.50894165px;line-height:125%;font-family:sans-serif;letter-spacing:0px;word-spacing:0px;fill:#4d4d4d;fill-opacity:1;stroke:none;stroke-width:1px;stroke-linecap:butt;stroke-linejoin:miter;stroke-opacity:1"
           x="2672.5103"
           y="1246.2245"
           id="text4475"
           sodipodi:linespacing="125%"><tspan
             sodipodi:role="line"
             id="tspan4477"
             x="2672.5103"
             y="1246.2245"
             style="font-style:normal;font-variant:normal;font-weight:normal;font-stretch:condensed;font-family:'Roboto Condensed';-inkscape-font-specification:'Roboto Condensed,  Condensed';fill:#4d4d4d">Soon!</tspan></text>
        <path
           style="fill:#ffd3c0;fill-opacity:1;fill-rule:evenodd;stroke:none;stroke-width:1px;stroke-linecap:butt;stroke-linejoin:miter;stroke-opacity:1"
           d="m 3173.2686,1396.5352 10.375,25.1464 c 0,0 13.5366,-20.9689 13.5366,-21.4664 0,-0.4973 -0.9325,-7.6471 -1.3679,-7.5849 -0.435,0.062 -22.5437,3.9049 -22.5437,3.9049 z"
           id="path4617"
           inkscape:connector-curvature="0" />
        <ellipse
           style="opacity:1;fill:#ffffff;fill-opacity:1;stroke:none;stroke-width:10;stroke-linecap:round;stroke-miterlimit:4;stroke-dasharray:none;stroke-dashoffset:0;stroke-opacity:1"
           id="path4647"
           cx="3081.7893"
           cy="1276.9904"
           rx="1.9273317"
           ry="2.0516758" />
        <ellipse
           style="opacity:1;fill:#ffffff;fill-opacity:1;stroke:none;stroke-width:10;stroke-linecap:round;stroke-miterlimit:4;stroke-dasharray:none;stroke-dashoffset:0;stroke-opacity:1"
           id="path4647-7"
           cx="3181.824"
           cy="1259.3955"
           rx="1.9273317"
           ry="2.0516758" />
      </g>
    </g>
  </g>
</svg>
