<?xml version="1.0" encoding="UTF-8" standalone="no"?>
<!-- Created with Inkscape (http://www.inkscape.org/) -->

<svg
   xmlns:dc="http://purl.org/dc/elements/1.1/"
   xmlns:cc="http://creativecommons.org/ns#"
   xmlns:rdf="http://www.w3.org/1999/02/22-rdf-syntax-ns#"
   xmlns:svg="http://www.w3.org/2000/svg"
   xmlns="http://www.w3.org/2000/svg"
   xmlns:sodipodi="http://sodipodi.sourceforge.net/DTD/sodipodi-0.dtd"
   xmlns:inkscape="http://www.inkscape.org/namespaces/inkscape"
   width="80"
   height="80"
   viewBox="0 0 80.000001 80.000001"
   id="svg6746"
   version="1.1"
   inkscape:version="0.91 r"
   sodipodi:docname="icon-sc.svg">
  <defs
     id="defs6748" />
  <sodipodi:namedview
     id="base"
     pagecolor="#ffffff"
     bordercolor="#666666"
     borderopacity="1.0"
     inkscape:pageopacity="0.0"
     inkscape:pageshadow="2"
     inkscape:zoom="2.8"
     inkscape:cx="-29.517677"
     inkscape:cy="-2.3532513"
     inkscape:document-units="px"
     inkscape:current-layer="layer1"
     showgrid="false"
     units="px"
     inkscape:window-width="1366"
     inkscape:window-height="744"
     inkscape:window-x="0"
     inkscape:window-y="24"
     inkscape:window-maximized="1" />
  <metadata
     id="metadata6751">
    <rdf:RDF>
      <cc:Work
         rdf:about="">
        <dc:format>image/svg+xml</dc:format>
        <dc:type
           rdf:resource="http://purl.org/dc/dcmitype/StillImage" />
        <dc:title />
      </cc:Work>
    </rdf:RDF>
  </metadata>
  <g
     inkscape:label="Layer 1"
     inkscape:groupmode="layer"
     id="layer1"
     transform="translate(0,-972.36216)">
    <g
       id="g4138">
      <rect
         style="opacity:1;fill:none;fill-opacity:1;stroke:none;stroke-width:1.70000005;stroke-linecap:round;stroke-miterlimit:4;stroke-dasharray:none;stroke-dashoffset:0;stroke-opacity:1"
         id="rect4773-7-9"
         width="80"
         height="80"
         x="0"
         y="972.36218" />
      <path
         inkscape:connector-curvature="0"
         id="path6716"
         d="m 28.313549,1019.7809 c -0.07337,-0.045 -0.135137,-0.5416 -0.247975,-1.9935 l -0.150238,-1.9332 0.155484,-1.7728 c 0.0855,-0.9751 0.178164,-1.8095 0.205894,-1.8544 0.08227,-0.133 0.25054,-0.094 0.321471,0.076 0.0364,0.087 0.131209,0.9559 0.210817,1.9315 l 0.144738,1.7739 -0.144889,1.7303 c -0.07972,0.9514 -0.159192,1.7976 -0.176662,1.8801 -0.0372,0.1752 -0.179852,0.2478 -0.31864,0.1621 z m 1.357437,0.017 c -0.05673,-0.036 -0.13159,-0.6992 -0.227431,-2.0138 -0.121296,-1.6636 -0.132896,-2.1771 -0.07672,-3.3966 0.0364,-0.7902 0.08654,-2.0044 0.111613,-2.6981 0.05142,-1.4285 0.112884,-1.7871 0.306335,-1.7871 0.07094,0 0.160267,0.039 0.198638,0.088 0.06932,0.087 0.151105,1.2261 0.306462,4.2658 0.08169,1.5976 0.07429,1.8177 -0.152272,4.5432 -0.08261,0.994 -0.172283,1.1861 -0.466532,0.999 z m 1.334757,-0.031 c -0.03004,-0.049 -0.1078,-0.8919 -0.172885,-1.8747 -0.109302,-1.6513 -0.110226,-2.0615 -0.0119,-5.3962 0.110111,-3.7326 0.129938,-3.9246 0.406267,-3.9246 0.269454,0 0.296502,0.2234 0.424337,3.5041 0.148297,3.8057 0.147361,4.0002 -0.02912,6.0542 -0.09786,1.1384 -0.165039,1.6211 -0.231475,1.6633 -0.137078,0.087 -0.322638,0.074 -0.385169,-0.027 z m 1.417853,-0.022 c -0.06054,-0.061 -0.11011,-0.1805 -0.11011,-0.2664 0,-0.086 -0.05061,-0.88 -0.112422,-1.7646 -0.116593,-1.6671 -0.114848,-1.9256 0.04772,-7.1096 0.06817,-2.1734 0.08862,-2.4308 0.202232,-2.5477 0.145571,-0.1497 0.38391,-0.1074 0.456758,0.08 0.0528,0.1362 0.08088,0.6588 0.140094,2.6077 0.02288,0.7516 0.07476,2.2118 0.115426,3.2448 0.07395,1.8781 0.06389,2.1828 -0.158188,4.7795 -0.04286,0.5011 -0.109417,0.9505 -0.148031,0.9987 -0.09648,0.1204 -0.301055,0.1098 -0.433407,-0.022 z m 1.41024,0.012 c -0.06921,-0.069 -0.116131,-0.3421 -0.147488,-0.8585 -0.0253,-0.4163 -0.07903,-1.2447 -0.119435,-1.8409 -0.107801,-1.5916 0.111266,-9.0915 0.270805,-9.2705 0.139771,-0.1568 0.315775,-0.1563 0.458399,0 0.09694,0.1075 0.128343,0.6613 0.230828,4.0712 0.110689,3.6841 0.11092,4.0673 0.0023,5.7453 -0.06378,0.989 -0.115541,1.851 -0.114848,1.9157 0.0023,0.2803 -0.380789,0.4364 -0.580895,0.2363 z m 1.426901,10e-4 c -0.104103,-0.1253 -0.112537,-0.2089 -0.219355,-2.1641 -0.06979,-1.2767 -0.06967,-2.3428 5.7e-5,-5.2911 0.04807,-2.0307 0.09636,-3.8134 0.107338,-3.9615 0.0357,-0.4846 0.468116,-0.6843 0.656125,-0.303 0.04564,0.092 0.11962,1.661 0.189823,4.0274 0.107915,3.6377 0.107569,3.9883 -0.0046,5.7116 -0.127454,1.9481 -0.158765,2.0812 -0.489664,2.0812 -0.08562,0 -0.193266,-0.045 -0.239125,-0.1005 z m 1.437784,-0.011 c -0.06748,-0.067 -0.111497,-0.2374 -0.113461,-0.4381 -0.0023,-0.1803 -0.04379,-1.0723 -0.09324,-1.9822 -0.07198,-1.3245 -0.07337,-2.3827 -0.0069,-5.3095 0.07626,-3.3511 0.0937,-3.6668 0.209268,-3.7944 0.158141,-0.1747 0.346243,-0.1777 0.515927,-0.012 0.116257,0.1162 0.136685,0.2947 0.178419,1.5593 0.160937,4.8765 0.172815,6.1361 0.0736,7.8053 -0.055,0.9252 -0.100636,1.7664 -0.101445,1.8697 -0.0023,0.2324 -0.168528,0.408 -0.386994,0.408 -0.09082,0 -0.214757,-0.05 -0.275323,-0.1098 z m 1.463181,0.011 c -0.119724,-0.084 -0.14289,-0.1921 -0.161169,-0.7533 -0.01178,-0.3605 -0.04483,-1.0812 -0.07337,-1.6015 -0.02865,-0.5204 -0.02265,-3.0906 0.0134,-5.7116 0.0714,-5.2014 0.05349,-5.0108 0.470022,-5.0108 0.418721,0 0.418687,0 0.489987,3.0214 0.03582,1.5181 0.08515,3.5645 0.109533,4.5473 0.03247,1.3045 0.01433,2.2412 -0.06701,3.469 -0.06124,0.9251 -0.111612,1.7348 -0.111728,1.7995 -7.86e-4,0.2918 -0.394366,0.4329 -0.669597,0.24 z m 1.398466,-0.05 c -0.210054,-0.2317 -0.306982,-3.3145 -0.23225,-7.3863 0.03258,-1.7731 0.06251,-3.8769 0.06655,-4.675 0.0069,-1.3387 0.01826,-1.4651 0.147512,-1.6294 0.183318,-0.233 0.492633,-0.2387 0.670763,-0.013 0.11196,0.1423 0.133485,0.3189 0.151533,1.2439 0.01155,0.593 0.058,2.7968 0.103178,4.8975 0.07037,3.2739 0.0669,4.076 -0.02415,5.617 -0.09324,1.5768 -0.122635,1.8157 -0.239413,1.9448 -0.170643,0.1886 -0.472703,0.1885 -0.643681,0 z m 1.38883,0.038 -0.155761,-0.1098 0,-7.0343 0,-7.0344 0.192723,-0.1334 c 0.194756,-0.135 0.753964,-0.3109 1.524255,-0.4799 0.564824,-0.1237 2.113956,-0.1216 2.769849,0 0.972777,0.1862 2.329672,0.7674 3.036681,1.3008 0.346277,0.2611 1.280671,1.1923 1.547179,1.5418 0.308622,0.4046 0.880783,1.3664 0.880783,1.4805 0,0.037 0.05927,0.1839 0.131613,0.3268 0.16311,0.3222 0.429028,1.3618 0.429028,1.6772 0,0.3073 0.0996,0.3362 0.694045,0.201 0.612438,-0.1393 1.448126,-0.1413 2.026872,0 1.386057,0.3268 2.59626,1.4526 3.044503,2.8323 0.08215,0.253 0.174686,0.4705 0.205501,0.4834 0.07314,0.03 0.07325,1.6747 1.62e-4,1.7053 -0.03073,0.013 -0.128205,0.2236 -0.216582,0.4684 -0.492195,1.3634 -1.482303,2.3185 -2.835962,2.7357 -0.473904,0.146 -0.56621,0.1481 -6.799757,0.1481 -5.606065,0 -6.33691,-0.013 -6.475086,-0.1086 z m -14.064187,-0.08 c -0.0275,-0.069 -0.116685,-0.933 -0.198072,-1.9191 l -0.147986,-1.7931 0.159759,-1.9544 c 0.08793,-1.075 0.174895,-1.979 0.193393,-2.0089 0.0431,-0.069 0.305457,-0.072 0.306347,0 3.93e-4,0.029 0.04552,0.4626 0.10029,0.9636 0.129602,1.1858 0.267709,2.754 0.263041,2.9869 -0.0081,0.38 -0.306011,3.3993 -0.355844,3.6007 -0.05939,0.24 -0.24645,0.3136 -0.320893,0.1262 z m -1.3359,-0.1086 c -0.01779,-0.049 -0.108378,-0.8847 -0.201169,-1.8589 l -0.16876,-1.7715 0.165097,-1.9011 c 0.09382,-1.0807 0.198766,-1.9342 0.243122,-1.9778 0.168402,-0.1658 0.257022,0.1816 0.377404,1.4797 0.06713,0.7242 0.14995,1.5574 0.183965,1.8514 0.04645,0.402 0.02912,0.8282 -0.0699,1.717 -0.07245,0.6502 -0.15382,1.4188 -0.180834,1.7079 -0.02704,0.2891 -0.07603,0.5965 -0.10884,0.6833 -0.06528,0.1724 -0.188933,0.2084 -0.240141,0.071 z m -1.395682,-0.7007 c -0.02045,-0.1254 -0.100521,-0.8586 -0.177968,-1.6294 l -0.140729,-1.4016 0.17211,-1.5267 c 0.170736,-1.5143 0.198916,-1.662 0.317046,-1.662 0.09752,0 0.12602,0.1579 0.31909,1.7699 0.156293,1.3052 0.17211,1.608 0.109764,2.1024 -0.191949,1.523 -0.292932,2.2733 -0.325376,2.4174 -0.05361,0.2384 -0.230944,0.1931 -0.273948,-0.071 z m -1.261826,-1.0513 c -0.01479,-0.049 -0.0788,-0.5133 -0.142382,-1.0337 -0.10572,-0.8657 -0.106182,-1.007 -0.0058,-1.6639 0.0602,-0.3949 0.109995,-0.8048 0.110573,-0.911 0.0012,-0.2609 0.108609,-0.4269 0.210008,-0.3256 0.08804,0.088 0.346381,1.599 0.348299,2.0374 6.94e-4,0.1612 -0.06158,0.6658 -0.138522,1.1212 -0.07684,0.4555 -0.139955,0.8361 -0.140163,0.8457 -0.0012,0.063 -0.220245,6e-4 -0.241863,-0.071 z"
         style="fill:#ffffff" />
    </g>
  </g>
</svg>
