<?xml version="1.0" encoding="UTF-8" standalone="no"?>
<!-- Created with Inkscape (http://www.inkscape.org/) -->

<svg
   xmlns:dc="http://purl.org/dc/elements/1.1/"
   xmlns:cc="http://creativecommons.org/ns#"
   xmlns:rdf="http://www.w3.org/1999/02/22-rdf-syntax-ns#"
   xmlns:svg="http://www.w3.org/2000/svg"
   xmlns="http://www.w3.org/2000/svg"
   xmlns:sodipodi="http://sodipodi.sourceforge.net/DTD/sodipodi-0.dtd"
   xmlns:inkscape="http://www.inkscape.org/namespaces/inkscape"
   width="80"
   height="80"
   viewBox="0 0 80.000001 80.000001"
   id="svg8187"
   version="1.1"
   inkscape:version="0.91 r"
   sodipodi:docname="icon-wp.svg">
  <defs
     id="defs8189" />
  <sodipodi:namedview
     id="base"
     pagecolor="#ffffff"
     bordercolor="#666666"
     borderopacity="1.0"
     inkscape:pageopacity="0.0"
     inkscape:pageshadow="2"
     inkscape:zoom="1.4"
     inkscape:cx="-45.090857"
     inkscape:cy="176.45109"
     inkscape:document-units="px"
     inkscape:current-layer="layer1"
     showgrid="false"
     units="px"
     inkscape:window-width="1366"
     inkscape:window-height="744"
     inkscape:window-x="0"
     inkscape:window-y="24"
     inkscape:window-maximized="1" />
  <metadata
     id="metadata8192">
    <rdf:RDF>
      <cc:Work
         rdf:about="">
        <dc:format>image/svg+xml</dc:format>
        <dc:type
           rdf:resource="http://purl.org/dc/dcmitype/StillImage" />
        <dc:title></dc:title>
      </cc:Work>
    </rdf:RDF>
  </metadata>
  <g
     inkscape:label="Layer 1"
     inkscape:groupmode="layer"
     id="layer1"
     transform="translate(0,-972.36216)">
    <g
       transform="translate(-665.69257,-983.28054)"
       id="g9566">
      <rect
         style="opacity:1;fill:none;fill-opacity:1;stroke:none;stroke-width:1.70000005;stroke-linecap:round;stroke-miterlimit:4;stroke-dasharray:none;stroke-dashoffset:0;stroke-opacity:1"
         id="rect4773-7-9-2-4-6-7"
         width="80"
         height="80"
         x="665.69257"
         y="1955.6427" />
      <path
         inkscape:connector-curvature="0"
         id="rect8138"
         d="m 715.89931,1985.1001 c -0.53411,0 -0.8886,0.01 -0.93429,0.025 -0.10614,0.036 -0.16602,2.9396 -0.16602,8.0404 l 0,7.9842 -3.11516,0 -3.11516,0 0,-7.9984 0,-7.9983 -2.86258,0 -2.86258,0 0,8.0141 0,8.0142 -2.39952,-0.066 c -2.71358,-0.075 -3.15806,-0.2133 -3.61216,-1.1253 -0.27445,-0.5512 -0.30753,-1.2743 -0.35335,-7.7227 l -0.0505,-7.1143 -2.86784,0 -2.86758,0 0.0713,7.5353 c 0.0756,7.9789 0.10533,8.2949 0.92823,9.9043 0.19265,0.3768 0.66714,0.9713 1.05453,1.3213 1.17914,1.0653 2.13276,1.4175 5.63465,2.0814 0.91611,0.1737 21.60899,0.2713 22.04503,0.1039 0.2389,-0.092 0.26626,-1.1753 0.26626,-10.5163 l 0,-10.4142 -2.78076,-0.05 c -0.76467,-0.014 -1.47838,-0.02 -2.01248,-0.019 z"
         style="opacity:1;fill:#ffffff;fill-opacity:1;stroke:none;stroke-width:1.70000005;stroke-linecap:round;stroke-miterlimit:4;stroke-dasharray:none;stroke-dashoffset:0;stroke-opacity:1" />
    </g>
  </g>
</svg>
