<?xml version="1.0" encoding="UTF-8" standalone="no"?>
<!-- Created with Inkscape (http://www.inkscape.org/) -->

<svg
   xmlns:dc="http://purl.org/dc/elements/1.1/"
   xmlns:cc="http://creativecommons.org/ns#"
   xmlns:rdf="http://www.w3.org/1999/02/22-rdf-syntax-ns#"
   xmlns:svg="http://www.w3.org/2000/svg"
   xmlns="http://www.w3.org/2000/svg"
   xmlns:sodipodi="http://sodipodi.sourceforge.net/DTD/sodipodi-0.dtd"
   xmlns:inkscape="http://www.inkscape.org/namespaces/inkscape"
   width="80"
   height="80"
   viewBox="0 0 80.000001 80.000001"
   id="svg4777"
   version="1.1"
   inkscape:version="0.91 r"
   sodipodi:docname="icon-tw.svg">
  <defs
     id="defs4779" />
  <sodipodi:namedview
     id="base"
     pagecolor="#ffffff"
     bordercolor="#666666"
     borderopacity="1.0"
     inkscape:pageopacity="0.0"
     inkscape:pageshadow="2"
     inkscape:zoom="2.8"
     inkscape:cx="32.929602"
     inkscape:cy="53.757061"
     inkscape:document-units="px"
     inkscape:current-layer="layer1"
     showgrid="false"
     units="px"
     inkscape:window-width="1366"
     inkscape:window-height="744"
     inkscape:window-x="0"
     inkscape:window-y="24"
     inkscape:window-maximized="1" />
  <metadata
     id="metadata4782">
    <rdf:RDF>
      <cc:Work
         rdf:about="">
        <dc:format>image/svg+xml</dc:format>
        <dc:type
           rdf:resource="http://purl.org/dc/dcmitype/StillImage" />
        <dc:title></dc:title>
      </cc:Work>
    </rdf:RDF>
  </metadata>
  <g
     inkscape:label="Layer 1"
     inkscape:groupmode="layer"
     id="layer1"
     transform="translate(0,-972.36216)">
    <g
       id="g5343">
      <rect
         style="opacity:1;fill:none;fill-opacity:1;stroke:none;stroke-width:1.70000005;stroke-linecap:round;stroke-miterlimit:4;stroke-dasharray:none;stroke-dashoffset:0;stroke-opacity:1"
         id="rect4773"
         width="80"
         height="80"
         x="0"
         y="972.36218" />
      <path
         inkscape:connector-curvature="0"
         id="path4175"
         d="m 45.933434,999.84314 c -0.41976,-0.01 -0.84776,0.032 -1.29216,0.1155 -3.11204,0.58316 -5.41295,3.65786 -5.07798,6.78576 l 0.0909,0.8477 -0.52095,-0.072 c -4.75347,-0.6569 -7.84312,-2.151 -11.173612,-5.4034 l -1.25535,-1.2258 -0.15088,0.3952 c -1.03362,2.709 -0.61221,5.29 1.18938,7.2841 0.29054,0.3216 0.44257,0.5948 0.36985,0.6653 -0.0713,0.069 -0.5509,-0.017 -1.13511,-0.2033 -0.55641,-0.1776 -1.05414,-0.2967 -1.10595,-0.2647 -0.10232,0.063 0.006,0.7319 0.27324,1.6961 0.46399,1.6708 1.6677,3.0884 3.414902,4.0216 l 1.01722,0.5433 -1.15767,0.068 c -1.137972,0.067 -1.157192,0.074 -1.121912,0.4086 0.0593,0.5633 1.004752,1.7981 1.886962,2.4643 0.70206,0.5302 1.3347,0.843 3.22955,1.5973 0.1993,0.079 0.049,0.2136 -0.74909,0.6691 -1.90452,1.0871 -3.71103,1.5799 -6.412282,1.749 -0.76498,0.048 -1.29497,0.137 -1.24981,0.2101 0.0431,0.07 0.5017,0.3399 1.01892,0.6003 2.26236,1.1393 4.419032,1.7771 6.624872,1.9591 0.73443,0.061 1.36601,0.1178 1.40346,0.1271 0.0374,0.01 0.7987,-0.044 1.69182,-0.1175 2.56223,-0.2122 4.61467,-0.7724 6.7666,-1.8468 3.99796,-1.9959 7.59243,-6.4812 8.83232,-11.0212 0.48299,-1.7684 0.82335,-3.6579 0.82335,-4.5716 0,-0.978 0.15442,-1.2465 1.56583,-2.7215 1.54854,-1.6182 1.63463,-1.867 0.51117,-1.4785 -1.03904,0.3591 -1.79285,0.5248 -1.86419,0.4094 -0.0319,-0.052 0.27722,-0.5119 0.68694,-1.0227 0.74708,-0.9317 1.35509,-1.9571 1.233,-2.0792 -0.0358,-0.036 -0.48437,0.1159 -0.99678,0.3373 -0.51243,0.2214 -1.34269,0.5366 -1.84504,0.7006 l -0.91336,0.2979 -0.83442,-0.5665 c -1.32954,-0.9029 -2.51441,-1.33756 -3.7737,-1.35806 z"
         style="opacity:1;fill:#ffffff;fill-opacity:1;stroke:none;stroke-width:1.70000005;stroke-linecap:round;stroke-miterlimit:4;stroke-dasharray:none;stroke-dashoffset:0;stroke-opacity:1" />
    </g>
  </g>
</svg>
