<?xml version="1.0" encoding="UTF-8" standalone="no"?>
<!-- Created with Inkscape (http://www.inkscape.org/) -->

<svg
   xmlns:dc="http://purl.org/dc/elements/1.1/"
   xmlns:cc="http://creativecommons.org/ns#"
   xmlns:rdf="http://www.w3.org/1999/02/22-rdf-syntax-ns#"
   xmlns:svg="http://www.w3.org/2000/svg"
   xmlns="http://www.w3.org/2000/svg"
   xmlns:sodipodi="http://sodipodi.sourceforge.net/DTD/sodipodi-0.dtd"
   xmlns:inkscape="http://www.inkscape.org/namespaces/inkscape"
   width="80"
   height="80"
   viewBox="0 0 80.000001 80.000001"
   id="svg8187"
   version="1.1"
   inkscape:version="0.91 r"
   sodipodi:docname="icon-gh.svg">
  <defs
     id="defs8189" />
  <sodipodi:namedview
     id="base"
     pagecolor="#ffffff"
     bordercolor="#666666"
     borderopacity="1.0"
     inkscape:pageopacity="0.0"
     inkscape:pageshadow="2"
     inkscape:zoom="1.4"
     inkscape:cx="-45.090857"
     inkscape:cy="176.45109"
     inkscape:document-units="px"
     inkscape:current-layer="layer1"
     showgrid="false"
     units="px"
     inkscape:window-width="1366"
     inkscape:window-height="744"
     inkscape:window-x="0"
     inkscape:window-y="24"
     inkscape:window-maximized="1" />
  <metadata
     id="metadata8192">
    <rdf:RDF>
      <cc:Work
         rdf:about="">
        <dc:format>image/svg+xml</dc:format>
        <dc:type
           rdf:resource="http://purl.org/dc/dcmitype/StillImage" />
        <dc:title></dc:title>
      </cc:Work>
    </rdf:RDF>
  </metadata>
  <g
     inkscape:label="Layer 1"
     inkscape:groupmode="layer"
     id="layer1"
     transform="translate(0,-972.36216)">
    <g
       id="g9535">
      <rect
         style="opacity:1;fill:none;fill-opacity:1;stroke:none;stroke-width:1.70000005;stroke-linecap:round;stroke-miterlimit:4;stroke-dasharray:none;stroke-dashoffset:0;stroke-opacity:1"
         id="rect4773-7-9-2-4-6-2"
         width="80"
         height="80"
         x="0"
         y="972.36218" />
      <path
         inkscape:connector-curvature="0"
         id="path8078"
         d="m 31.55121,999.18819 c -0.1583,-0.01 -0.26791,0.01 -0.30957,0.049 -0.0554,0.053 -0.12029,1.07801 -0.14408,2.27701 -0.0404,2.0384 -0.0823,2.2421 -0.64556,3.1303 -0.33133,0.5224 -0.70922,1.4268 -0.83966,2.0096 -0.24186,1.0807 -0.16415,3.9069 0.12647,4.6051 0.14464,0.3475 0.0909,0.3681 -0.61189,0.2363 -0.93799,-0.176 -4.12689,0.066 -4.12689,0.3127 0,0.098 1.1552,0.1892 2.56711,0.2032 2.73618,0.027 2.76264,0.016 -1.10738,0.4804 -0.76095,0.091 -1.05705,0.2135 -1.05705,0.436 0,0.2059 0.11202,0.2661 0.33568,0.1803 0.18471,-0.071 1.29049,-0.2296 2.457,-0.3527 1.70471,-0.1798 2.13786,-0.1728 2.20722,0.035 0.38362,1.1508 3.34629,3.06 5.17387,3.3341 1.11645,0.1674 1.24293,0.3493 0.71193,1.0243 -0.22867,0.2907 -0.4159,0.6976 -0.4159,0.9041 0,0.3234 -0.16249,0.3754 -1.16873,0.3754 -0.94097,0 -1.34301,-0.1117 -2.06375,-0.5735 -0.49232,-0.3155 -1.07587,-0.7776 -1.29709,-1.0272 -0.54531,-0.6152 -1.36811,-1.0168 -2.08389,-1.0168 l -0.59333,0 0.71445,0.755 c 0.39302,0.4153 1.08586,1.3417 1.53964,2.0584 1.01937,1.6102 1.72913,2.0439 3.55967,2.1749 l 1.39303,0.099 0,1.841 c 0,1.3926 -0.0817,1.9576 -0.33567,2.3201 l -0.33568,0.4795 0.75976,-0.1233 c 0.41783,-0.068 0.97658,-0.2655 1.24171,-0.4392 0.46734,-0.3062 0.48196,-0.3954 0.48196,-2.917 0,-1.6053 0.0811,-2.651 0.21204,-2.7319 0.26425,-0.1633 0.17414,5.2554 -0.0969,5.8263 -0.16768,0.3533 -0.11498,0.3743 0.67229,0.2687 1.52669,-0.2048 1.62298,-0.4157 1.668,-3.6531 l 0.0396,-2.838 0.11137,2.8629 c 0.12616,3.2377 0.21404,3.4371 1.59407,3.6222 0.79021,0.106 1.13265,-0.1352 0.63171,-0.4448 -0.12231,-0.076 -0.18439,-1.2458 -0.15824,-2.9814 l 0.0431,-2.8575 0.0566,2.3154 c 0.0312,1.2735 0.10572,2.5255 0.16548,2.782 0.11908,0.511 1.14615,1.0435 2.01217,1.0435 0.49842,0 0.50734,-0.02 0.20763,-0.4474 -0.249,-0.3555 -0.31334,-1.0527 -0.31334,-3.3926 0,-2.9051 -0.17194,-3.9802 -0.74245,-4.6422 -0.25393,-0.2946 -0.19325,-0.3416 0.59585,-0.4599 1.06988,-0.1604 3.0369,-1.0694 3.91076,-1.8071 0.35375,-0.2986 0.8418,-0.8643 1.08473,-1.2574 l 0.44169,-0.7148 1.63339,0.1372 c 0.89828,0.075 1.97284,0.2101 2.38811,0.2992 0.58878,0.1263 0.75504,0.1 0.75504,-0.1189 0,-0.1544 -0.11326,-0.2866 -0.25168,-0.2939 -0.13843,-0.01 -1.20302,-0.133 -2.36577,-0.2793 l -2.1141,-0.2662 2.56712,-0.023 c 1.41191,-0.012 2.56711,-0.1024 2.56711,-0.2001 0,-0.2541 -2.80773,-0.483 -3.90573,-0.3184 l -0.92554,0.1387 0.15069,-0.677 c 0.2603,-1.1709 0.14251,-3.8396 -0.21644,-4.9055 -0.18647,-0.5537 -0.60756,-1.4109 -0.93561,-1.9052 -0.39493,-0.595 -0.55871,-1.0491 -0.4848,-1.3436 0.10494,-0.4182 -0.23446,-3.18351 -0.42942,-3.49901 -0.15289,-0.2473 -2.15694,0.2056 -3.32026,0.75031 -1.06281,0.4977 -1.26543,0.5196 -5.03356,0.5465 -3.90712,0.028 -3.93221,0.025 -5.13832,-0.537 -0.92583,-0.43171 -2.52391,-0.84481 -3.20983,-0.86991 z"
         style="opacity:1;fill:#ffffff;fill-opacity:1;stroke:none;stroke-width:1.70000005;stroke-linecap:round;stroke-miterlimit:4;stroke-dasharray:none;stroke-dashoffset:0;stroke-opacity:1" />
    </g>
  </g>
</svg>
