<?xml version="1.0" encoding="UTF-8" standalone="no"?>
<!-- Created with Inkscape (http://www.inkscape.org/) -->

<svg
   xmlns:dc="http://purl.org/dc/elements/1.1/"
   xmlns:cc="http://creativecommons.org/ns#"
   xmlns:rdf="http://www.w3.org/1999/02/22-rdf-syntax-ns#"
   xmlns:svg="http://www.w3.org/2000/svg"
   xmlns="http://www.w3.org/2000/svg"
   xmlns:sodipodi="http://sodipodi.sourceforge.net/DTD/sodipodi-0.dtd"
   xmlns:inkscape="http://www.inkscape.org/namespaces/inkscape"
   width="80"
   height="80"
   viewBox="0 0 80.000001 80.000001"
   id="svg5433"
   version="1.1"
   inkscape:version="0.91 r"
   sodipodi:docname="icon-ig.svg">
  <defs
     id="defs5435" />
  <sodipodi:namedview
     id="base"
     pagecolor="#ffffff"
     bordercolor="#666666"
     borderopacity="1.0"
     inkscape:pageopacity="0.0"
     inkscape:pageshadow="2"
     inkscape:zoom="0.98994949"
     inkscape:cx="54.644442"
     inkscape:cy="54.556328"
     inkscape:document-units="px"
     inkscape:current-layer="layer1"
     showgrid="false"
     units="px"
     inkscape:window-width="1366"
     inkscape:window-height="744"
     inkscape:window-x="0"
     inkscape:window-y="24"
     inkscape:window-maximized="1" />
  <metadata
     id="metadata5438">
    <rdf:RDF>
      <cc:Work
         rdf:about="">
        <dc:format>image/svg+xml</dc:format>
        <dc:type
           rdf:resource="http://purl.org/dc/dcmitype/StillImage" />
        <dc:title></dc:title>
      </cc:Work>
    </rdf:RDF>
  </metadata>
  <g
     inkscape:label="Layer 1"
     inkscape:groupmode="layer"
     id="layer1"
     transform="translate(0,-972.36216)">
    <g
       id="g6008">
      <rect
         style="opacity:1;fill:none;fill-opacity:1;stroke:none;stroke-width:1.70000005;stroke-linecap:round;stroke-miterlimit:4;stroke-dasharray:none;stroke-dashoffset:0;stroke-opacity:1"
         id="rect4773-7"
         width="80"
         height="80"
         x="0"
         y="972.36218" />
      <path
         inkscape:connector-curvature="0"
         id="path5406"
         d="m 27.058405,1026.9606 c -0.80416,-0.3653 -1.6014,-1.2855 -1.85925,-2.1461 -0.26554,-0.8863 -0.26554,-24.011 0,-24.89734 0.25793,-0.8609 0.99049,-1.7022 1.84035,-2.1136 0.70169,-0.3397 0.87225,-0.3443 12.96049,-0.3443 12.08824,0 12.2588,0 12.9605,0.3443 0.84986,0.4114 1.58241,1.2527 1.84035,2.1136 0.26554,0.88634 0.26554,24.01104 0,24.89734 -0.25785,0.8606 -1.0551,1.7808 -1.85925,2.1461 -0.63303,0.2875 -1.35639,0.3045 -12.9416,0.3045 -11.58521,0 -12.30857,-0.017 -12.94159,-0.3045 z m 24.14205,-3.4767 c 0.31831,-0.3183 0.32943,-0.549 0.32943,-6.8355 l 0,-6.5062 -1.32084,0 -1.32084,0 0.12205,0.453 c 0.0671,0.2491 0.11971,1.083 0.11686,1.853 -0.0184,4.9748 -4.13076,9.0543 -9.12712,9.0543 -4.99636,0 -9.10873,-4.0795 -9.12712,-9.0543 -0.003,-0.77 0.0497,-1.6039 0.11687,-1.853 l 0.12204,-0.453 -1.32084,0 -1.32083,0 0,6.5062 c 0,6.2865 0.0111,6.5172 0.32942,6.8355 0.32277,0.3228 0.54904,0.3295 11.20046,0.3295 10.65142,0 10.87769,-0.01 11.20046,-0.3295 z m -8.85589,-6.052 c 1.10703,-0.4857 2.28573,-1.6616 2.81352,-2.8067 0.51015,-1.1068 0.51015,-3.4119 0,-4.5188 -1.29319,-2.8057 -4.65598,-4.0936 -7.43377,-2.847 -1.17856,0.5289 -2.34497,1.681 -2.8824,2.847 -0.50856,1.1034 -0.5101,3.4122 -0.003,4.512 1.32001,2.8629 4.59515,4.0906 7.50568,2.8135 z m 8.78102,-11.1529 c 0.38644,-0.3865 0.4043,-0.4959 0.4043,-2.4782 0,-1.9823 -0.0179,-2.0917 -0.4043,-2.4782 -0.38643,-0.3864 -0.49589,-0.4043 -2.47817,-0.4043 -1.98229,0 -2.09174,0.018 -2.47818,0.4043 -0.3823,0.3823 -0.40429,0.5072 -0.40429,2.2953 0,2.0874 0.1406,2.6708 0.69763,2.8946 0.20515,0.082 1.24728,0.1546 2.31586,0.1603 1.84999,0.01 1.96219,-0.01 2.34715,-0.3938 z"
         style="fill:#ffffff" />
    </g>
  </g>
</svg>
