<?xml version="1.0" encoding="UTF-8" standalone="no"?>
<!-- Created with Inkscape (http://www.inkscape.org/) -->

<svg
   xmlns:dc="http://purl.org/dc/elements/1.1/"
   xmlns:cc="http://creativecommons.org/ns#"
   xmlns:rdf="http://www.w3.org/1999/02/22-rdf-syntax-ns#"
   xmlns:svg="http://www.w3.org/2000/svg"
   xmlns="http://www.w3.org/2000/svg"
   xmlns:sodipodi="http://sodipodi.sourceforge.net/DTD/sodipodi-0.dtd"
   xmlns:inkscape="http://www.inkscape.org/namespaces/inkscape"
   width="80"
   height="80"
   viewBox="0 0 80.000001 80.000001"
   id="svg8187"
   version="1.1"
   inkscape:version="0.91 r"
   sodipodi:docname="icon-st.svg">
  <defs
     id="defs8189" />
  <sodipodi:namedview
     id="base"
     pagecolor="#ffffff"
     bordercolor="#666666"
     borderopacity="1.0"
     inkscape:pageopacity="0.0"
     inkscape:pageshadow="2"
     inkscape:zoom="1.4"
     inkscape:cx="-45.090857"
     inkscape:cy="176.45109"
     inkscape:document-units="px"
     inkscape:current-layer="layer1"
     showgrid="false"
     units="px"
     inkscape:window-width="1366"
     inkscape:window-height="744"
     inkscape:window-x="0"
     inkscape:window-y="24"
     inkscape:window-maximized="1" />
  <metadata
     id="metadata8192">
    <rdf:RDF>
      <cc:Work
         rdf:about="">
        <dc:format>image/svg+xml</dc:format>
        <dc:type
           rdf:resource="http://purl.org/dc/dcmitype/StillImage" />
        <dc:title></dc:title>
      </cc:Work>
    </rdf:RDF>
  </metadata>
  <g
     inkscape:label="Layer 1"
     inkscape:groupmode="layer"
     id="layer1"
     transform="translate(0,-972.36216)">
    <g
       id="g9429">
      <rect
         style="opacity:1;fill:none;fill-opacity:1;stroke:none;stroke-width:1.70000005;stroke-linecap:round;stroke-miterlimit:4;stroke-dasharray:none;stroke-dashoffset:0;stroke-opacity:1"
         id="rect4773-7-9-2-4-6"
         width="80"
         height="80"
         x="0"
         y="972.36218" />
      <path
         inkscape:connector-curvature="0"
         id="path8043"
         d="m 50.033339,1003.6025 c -1.31523,0 -1.59019,0.05 -2.2912,0.4196 -1.48989,0.7849 -2.46612,2.2137 -2.66827,3.905 -0.0569,0.4759 -0.35849,1.6564 -0.67008,2.6233 -0.56391,1.7498 -0.56904,1.7585 -1.12606,1.8593 -0.55583,0.1006 -1.90522,0.6906 -2.38191,1.0415 -0.19908,0.1465 -0.89199,-0.03 -3.46101,-0.8827 -4.88705,-1.622 -4.82657,-1.5963 -4.94006,-2.113 -0.0539,-0.2455 -0.3558,-0.7475 -0.67081,-1.1155 -2.36148,-2.7588 -6.82395,-1.1744 -6.82395,2.423 0,2.3251 1.53483,3.8727 3.84079,3.8727 0.74798,0 1.24448,-0.096 1.73714,-0.335 l 0.68999,-0.3353 4.09447,1.365 4.09447,1.3647 0.5076,1.0312 c 0.52595,1.0684 1.3376,1.8118 2.40992,2.2071 0.73835,0.2722 2.30204,0.2457 3.18104,-0.054 1.58647,-0.5406 2.73427,-2.2272 2.75775,-4.0527 l 0.0101,-0.7979 1.60244,-1.3542 c 0.88124,-0.7448 1.90629,-1.5087 2.27792,-1.6978 1.02661,-0.5223 1.86387,-1.363 2.34061,-2.3499 0.5656,-1.1709 0.61087,-3.0118 0.10177,-4.135 -0.44961,-0.992 -1.36524,-1.9662 -2.32144,-2.47 -0.70101,-0.3693 -0.97597,-0.4196 -2.2912,-0.4196 z m -0.11455,1.0079 c 0.60646,-0.012 1.23996,0.1268 1.86349,0.4525 2.83282,1.4799 2.83282,5.35 0,6.8299 -0.93282,0.4873 -2.17154,0.5755 -3.14318,0.2239 -0.75884,-0.2746 -1.70432,-1.1192 -2.0825,-1.8606 -1.38686,-2.7184 0.73423,-5.5946 3.36219,-5.6457 z m 0.0135,1.1538 c -1.63847,0.061 -3.06542,1.594 -2.57585,3.4121 0.20456,0.7596 0.84225,1.5484 1.48912,1.8419 0.77766,0.3527 2.14895,0.1995 2.82437,-0.3157 0.74915,-0.5714 1.03781,-1.1704 1.03781,-2.1538 0,-1.0493 -0.37146,-1.809 -1.12975,-2.3108 -0.52999,-0.3508 -1.09954,-0.494 -1.6457,-0.4737 z m -20.99566,3.3192 c 0.60433,0.014 1.21989,0.234 1.75041,0.6804 0.66516,0.5597 0.58023,0.6996 -0.25244,0.4159 -1.38791,-0.4729 -2.65189,0.065 -3.06035,1.3028 -0.35799,1.0847 0.42331,2.405 1.5727,2.6575 0.26066,0.057 0.51428,0.1696 0.56364,0.2495 0.14972,0.2422 -1.23281,0.1604 -1.73763,-0.1028 -0.70934,-0.3699 -1.03718,-0.7095 -1.35614,-1.4041 -0.37896,-0.8252 -0.36921,-1.4009 0.0379,-2.2418 0.49891,-1.0306 1.47473,-1.5805 2.48195,-1.5574 z m 14.40769,5.1364 c 1.18041,0 2.43481,1.0099 2.76144,2.2229 0.58246,2.1631 -1.74321,4.3034 -3.83809,3.5321 -0.84088,-0.3096 -2.04345,-1.5044 -1.77967,-1.7682 0.0422,-0.042 0.65633,0.1064 1.36474,0.3302 1.51781,0.4794 2.16658,0.3925 2.91778,-0.3916 0.40657,-0.4244 0.46458,-0.6001 0.46458,-1.4083 0,-0.7995 -0.0598,-0.9855 -0.44615,-1.3888 -0.24534,-0.2561 -0.7603,-0.5534 -1.14449,-0.661 -0.88962,-0.2491 -1.02969,-0.4673 -0.30014,-0.4673 z"
         style="opacity:1;fill:#ffffff;fill-opacity:1;stroke:none;stroke-width:1.70000005;stroke-linecap:round;stroke-miterlimit:4;stroke-dasharray:none;stroke-dashoffset:0;stroke-opacity:1" />
    </g>
  </g>
</svg>
