<?xml version="1.0" encoding="UTF-8" standalone="no"?>
<!-- Created with Inkscape (http://www.inkscape.org/) -->

<svg
   xmlns:dc="http://purl.org/dc/elements/1.1/"
   xmlns:cc="http://creativecommons.org/ns#"
   xmlns:rdf="http://www.w3.org/1999/02/22-rdf-syntax-ns#"
   xmlns:svg="http://www.w3.org/2000/svg"
   xmlns="http://www.w3.org/2000/svg"
   xmlns:sodipodi="http://sodipodi.sourceforge.net/DTD/sodipodi-0.dtd"
   xmlns:inkscape="http://www.inkscape.org/namespaces/inkscape"
   width="80"
   height="80"
   viewBox="0 0 80.000001 80.000001"
   id="svg8187"
   version="1.1"
   inkscape:version="0.91 r"
   sodipodi:docname="icon-sn.svg">
  <defs
     id="defs8189" />
  <sodipodi:namedview
     id="base"
     pagecolor="#ffffff"
     bordercolor="#666666"
     borderopacity="1.0"
     inkscape:pageopacity="0.0"
     inkscape:pageshadow="2"
     inkscape:zoom="0.7"
     inkscape:cx="-187.81777"
     inkscape:cy="304.38002"
     inkscape:document-units="px"
     inkscape:current-layer="layer1"
     showgrid="false"
     units="px"
     inkscape:window-width="1366"
     inkscape:window-height="744"
     inkscape:window-x="0"
     inkscape:window-y="24"
     inkscape:window-maximized="1" />
  <metadata
     id="metadata8192">
    <rdf:RDF>
      <cc:Work
         rdf:about="">
        <dc:format>image/svg+xml</dc:format>
        <dc:type
           rdf:resource="http://purl.org/dc/dcmitype/StillImage" />
        <dc:title></dc:title>
      </cc:Work>
    </rdf:RDF>
  </metadata>
  <g
     inkscape:label="Layer 1"
     inkscape:groupmode="layer"
     id="layer1"
     transform="translate(0,-972.36216)">
    <g
       id="g8764">
      <rect
         style="opacity:1;fill:none;fill-opacity:1;stroke:none;stroke-width:1.70000005;stroke-linecap:round;stroke-miterlimit:4;stroke-dasharray:none;stroke-dashoffset:0;stroke-opacity:1"
         id="rect4773-7-9-2-4-5"
         width="80"
         height="80"
         x="0"
         y="972.36218" />
      <path
         inkscape:connector-curvature="0"
         id="rect8184"
         d="m 40.122351,998.22302 c -1.79647,-0.01 -3.04997,0.2686 -4.34052,0.9494 -1.91341,1.00928 -3.47098,3.03078 -3.88824,5.04648 -0.14459,0.6985 -0.15073,0.8964 -0.10096,3.2393 l 0.053,2.4954 -0.52147,0 c -0.29755,0 -0.77631,-0.069 -1.11506,-0.1604 -0.89137,-0.241 -1.09262,-0.2514 -1.42734,-0.073 -1.40909,0.7495 -0.92669,1.6825 1.30866,2.5305 1.36777,0.519 1.68645,0.8868 1.50896,1.7418 -0.19577,0.943 -1.20929,2.5071 -2.2999,3.5491 -0.98573,0.9417 -1.92905,1.5057 -3.20435,1.9161 -0.77233,0.2485 -1.09513,0.496 -1.09513,0.8398 0,0.611 1.00806,1.1516 2.88938,1.5496 1.05944,0.2242 1.05492,0.2217 1.18577,0.6615 0.064,0.2152 0.15718,0.577 0.20697,0.804 0.11404,0.5198 0.18325,0.6534 0.36903,0.7124 0.0816,0.026 0.57968,-0.026 1.10697,-0.1154 0.7346,-0.1246 1.16051,-0.1548 1.82182,-0.1294 1.05099,0.041 1.59991,0.2317 2.73928,0.954 2.15417,1.3656 2.65142,1.6095 3.5273,1.7308 0.60875,0.084 2.37582,0.014 2.90697,-0.1165 0.56423,-0.138 0.99015,-0.3588 2.34012,-1.2127 1.74446,-1.1035 2.0281,-1.2283 2.96794,-1.3064 0.50815,-0.042 1.24086,-0.036 2.04966,0.019 1.48572,0.1 1.4614,0.1098 1.66843,-0.6691 0.14742,-0.5547 0.34417,-0.9924 0.50658,-1.1272 0.0578,-0.048 0.3434,-0.121 0.63475,-0.1623 0.29134,-0.041 0.81225,-0.164 1.15751,-0.2727 1.43806,-0.4527 1.99661,-0.8548 1.91351,-1.3773 -0.0601,-0.3782 -0.30639,-0.5551 -1.15001,-0.8262 -1.77767,-0.5715 -3.27809,-1.7446 -4.41416,-3.4511 -0.96794,-1.454 -1.22831,-2.3719 -0.82331,-2.9029 0.18729,-0.2455 1.01082,-0.6926 1.77174,-0.9619 0.53446,-0.1891 1.28486,-0.6702 1.47248,-0.944 0.34688,-0.5061 0.12513,-1.1009 -0.52827,-1.4172 -0.42727,-0.2069 -0.85819,-0.1984 -1.57591,0.031 -0.72805,0.2325 -1.55013,0.2616 -1.56207,0.055 -0.004,-0.072 -0.0137,-1.3641 -0.0212,-2.8707 -0.0152,-3.0523 -0.0174,-3.069 -0.56837,-4.2491 -0.40908,-0.8763 -0.83796,-1.4783 -1.57228,-2.2071 -1.60127,-1.58898 -3.35481,-2.26458 -5.89825,-2.27238 z"
         style="opacity:1;fill:#ffffff;fill-opacity:1;stroke:none;stroke-width:1.70000005;stroke-linecap:round;stroke-miterlimit:4;stroke-dasharray:none;stroke-dashoffset:0;stroke-opacity:1" />
    </g>
  </g>
</svg>
