<?xml version="1.0" encoding="UTF-8" standalone="no"?>
<!-- Created with Inkscape (http://www.inkscape.org/) -->

<svg
   xmlns:dc="http://purl.org/dc/elements/1.1/"
   xmlns:cc="http://creativecommons.org/ns#"
   xmlns:rdf="http://www.w3.org/1999/02/22-rdf-syntax-ns#"
   xmlns:svg="http://www.w3.org/2000/svg"
   xmlns="http://www.w3.org/2000/svg"
   xmlns:sodipodi="http://sodipodi.sourceforge.net/DTD/sodipodi-0.dtd"
   xmlns:inkscape="http://www.inkscape.org/namespaces/inkscape"
   width="80"
   height="80"
   viewBox="0 0 80.000001 80.000001"
   id="svg8187"
   version="1.1"
   inkscape:version="0.91 r"
   sodipodi:docname="icon-md.svg">
  <defs
     id="defs8189" />
  <sodipodi:namedview
     id="base"
     pagecolor="#ffffff"
     bordercolor="#666666"
     borderopacity="1.0"
     inkscape:pageopacity="0.0"
     inkscape:pageshadow="2"
     inkscape:zoom="1.4"
     inkscape:cx="-45.090857"
     inkscape:cy="176.45109"
     inkscape:document-units="px"
     inkscape:current-layer="layer1"
     showgrid="false"
     units="px"
     inkscape:window-width="1366"
     inkscape:window-height="744"
     inkscape:window-x="0"
     inkscape:window-y="24"
     inkscape:window-maximized="1" />
  <metadata
     id="metadata8192">
    <rdf:RDF>
      <cc:Work
         rdf:about="">
        <dc:format>image/svg+xml</dc:format>
        <dc:type
           rdf:resource="http://purl.org/dc/dcmitype/StillImage" />
        <dc:title></dc:title>
      </cc:Work>
    </rdf:RDF>
  </metadata>
  <g
     inkscape:label="Layer 1"
     inkscape:groupmode="layer"
     id="layer1"
     transform="translate(0,-972.36216)">
    <g
       id="g9380">
      <rect
         style="opacity:1;fill:none;fill-opacity:1;stroke:none;stroke-width:1.70000005;stroke-linecap:round;stroke-miterlimit:4;stroke-dasharray:none;stroke-dashoffset:0;stroke-opacity:1"
         id="rect4773-7-9-2-4"
         width="80"
         height="80"
         x="0"
         y="972.36218" />
      <path
         inkscape:connector-curvature="0"
         id="rect8012"
         d="m 25.00004,1000.4694 0,1.7929 0,1.7928 0.72255,0 c 0.6078,0 0.76916,0.047 1.01593,0.2934 l 0.29339,0.2932 0,7.7226 c 0,5.068 -0.0423,7.8014 -0.12307,7.9523 -0.18426,0.3443 -0.75399,0.5911 -1.36498,0.5911 l -0.54382,0 0,1.6733 0,1.6733 4.48207,0 4.48207,0 0,-1.6733 0,-1.6733 -1.13545,0 -1.13546,0 0,-7.8487 c 0,-4.3167 0.0403,-7.8091 0.0896,-7.7609 0.0493,0.048 1.24787,4.3195 2.66347,9.4919 l 2.57383,9.4045 2.05764,0.033 c 1.13172,0.018 2.05765,0 2.05765,-0.04 0,-0.2223 5.18368,-18.7762 5.27222,-18.8708 0.062,-0.066 0.10626,3.1537 0.10626,7.739 l 0,7.8526 -1.07569,0 -1.0757,0 0,1.6733 0,1.6733 5.31872,0 5.31873,0 0,-1.6589 0,-1.6591 -0.73487,-0.053 c -0.64256,-0.046 -0.77772,-0.101 -1.0757,-0.4345 l -0.34082,-0.3816 0,-7.6382 0,-7.6384 0.30945,-0.3677 c 0.28627,-0.3402 0.36677,-0.3677 1.07569,-0.3677 l 0.76625,0 0,-1.7928 0,-1.7929 -5.60913,0 -5.60893,0 -0.18041,0.6275 c -0.0992,0.3452 -0.94169,3.4512 -1.8722,6.9024 -0.93051,3.4512 -1.71253,6.296 -1.73773,6.3218 -0.0252,0.026 -0.072,-0.028 -0.10403,-0.1195 -0.0861,-0.246 -3.65251,-13.5906 -3.65251,-13.667 0,-0.036 -2.52789,-0.065 -5.61753,-0.065 l -5.61753,0 z"
         style="opacity:1;fill:#ffffff;fill-opacity:1;stroke:none;stroke-width:1.70000005;stroke-linecap:round;stroke-miterlimit:4;stroke-dasharray:none;stroke-dashoffset:0;stroke-opacity:1" />
    </g>
  </g>
</svg>
