<?xml version="1.0" encoding="UTF-8" standalone="no"?>
<!-- Created with Inkscape (http://www.inkscape.org/) -->

<svg
   xmlns:dc="http://purl.org/dc/elements/1.1/"
   xmlns:cc="http://creativecommons.org/ns#"
   xmlns:rdf="http://www.w3.org/1999/02/22-rdf-syntax-ns#"
   xmlns:svg="http://www.w3.org/2000/svg"
   xmlns="http://www.w3.org/2000/svg"
   xmlns:sodipodi="http://sodipodi.sourceforge.net/DTD/sodipodi-0.dtd"
   xmlns:inkscape="http://www.inkscape.org/namespaces/inkscape"
   width="48"
   height="48"
   viewBox="0 0 48.000001 48.000001"
   id="svg2"
   version="1.1"
   inkscape:version="0.91 r"
   sodipodi:docname="icon-logo.svg">
  <defs
     id="defs4" />
  <sodipodi:namedview
     id="base"
     pagecolor="#ffffff"
     bordercolor="#666666"
     borderopacity="1.0"
     inkscape:pageopacity="0.0"
     inkscape:pageshadow="2"
     inkscape:zoom="3.959798"
     inkscape:cx="-9.322712"
     inkscape:cy="44.078799"
     inkscape:document-units="px"
     inkscape:current-layer="layer1"
     showgrid="false"
     inkscape:window-width="1366"
     inkscape:window-height="744"
     inkscape:window-x="0"
     inkscape:window-y="24"
     inkscape:window-maximized="1"
     units="px" />
  <metadata
     id="metadata7">
    <rdf:RDF>
      <cc:Work
         rdf:about="">
        <dc:format>image/svg+xml</dc:format>
        <dc:type
           rdf:resource="http://purl.org/dc/dcmitype/StillImage" />
        <dc:title></dc:title>
      </cc:Work>
    </rdf:RDF>
  </metadata>
  <g
     inkscape:label="Layer 1"
     inkscape:groupmode="layer"
     id="layer1"
     transform="translate(0,-1004.3622)">
    <g
       id="g4138"
       transform="matrix(0.53333333,0,0,0.53333333,0,491.10237)">
      <rect
         y="962.36218"
         x="2.7739716e-07"
         height="90"
         width="90"
         id="rect4756"
         style="fill:#ffffff;fill-opacity:0;stroke:none;stroke-width:2.4000001;stroke-miterlimit:4;stroke-dasharray:none;stroke-opacity:1" />
      <path
         id="circle4241"
         d="m 44.999795,964.54653 a 42.815872,42.815872 0 0 0 -27.219054,9.792 l -0.317332,0 0.06347,0.19307 a 42.815872,42.815872 0 0 0 -15.3428675,32.8307 42.815872,42.815872 0 0 0 42.8157865,42.8158 42.815872,42.815872 0 0 0 42.815786,-42.8158 42.815872,42.815872 0 0 0 -15.354406,-32.79476 l 0.07501,-0.22901 -0.335528,0 a 42.815872,42.815872 0 0 0 -27.200858,-9.792 z m 0,4.98099 a 37.834791,37.834791 0 0 1 19.836103,5.67201 l -5.099495,16.30109 c -0.567527,-2.59716 -1.635857,-4.74238 -3.209709,-6.43141 -2.441433,-2.64156 -5.923542,-3.96243 -10.446196,-3.96243 -4.882868,0 -8.825163,1.61088 -11.826925,4.83277 -1.677143,1.81222 -2.882445,3.98232 -3.616247,6.50996 l -5.476298,-17.27039 a 37.834791,37.834791 0 0 1 19.838767,-5.6516 z M 19.22715,979.70565 40.657458,1044.9228 A 37.834791,37.834791 0 0 1 7.165004,1007.3623 37.834791,37.834791 0 0 1 19.22715,979.70565 Z m 51.543069,0.02 a 37.834791,37.834791 0 0 1 12.064366,27.63665 37.834791,37.834791 0 0 1 -33.426323,37.5299 l 21.361957,-65.16655 z m -24.989743,6.03418 c 3.001762,0 5.233282,0.8103 6.69414,2.43124 1.480869,1.62095 2.231046,3.91216 2.251057,6.87389 l -19.211205,0 c 0.24014,-2.64155 1.250691,-4.85274 3.031736,-6.63378 1.801056,-1.78105 4.212496,-2.67135 7.234272,-2.67135 z m -10.266008,13.62794 21.754295,0 -3.392562,10.84383 c -2.157008,0.792 -4.305306,1.193 -6.444715,1.193 -1.721011,0 -3.301817,-0.24 -4.742663,-0.7203 -1.420834,-0.4803 -2.65153,-1.2008 -3.692141,-2.1614 -1.080634,-0.9806 -1.931159,-2.2312 -2.551523,-3.7521 -0.620365,-1.5409 -0.930691,-3.3418 -0.930691,-5.40303 z m 1.98077,14.68863 c 2.718415,1.5117 6.048311,2.2711 9.996163,2.2711 1.588918,0 3.124125,-0.1452 4.606855,-0.4319 l -4.611294,14.7398 -2.277241,8.8191 -0.359938,0 -2.097049,-8.8191 -5.257496,-16.579 z"
         style="opacity:1;fill:#898989;fill-opacity:1;stroke:none;stroke-opacity:1"
         inkscape:connector-curvature="0" />
    </g>
  </g>
</svg>
